<?xml version="1.0" encoding="utf-8"?>
<!-- Generator: Adobe Illustrator 22.1.0, SVG Export Plug-In . SVG Version: 6.00 Build 0)  -->
<svg version="1.1" id="Layer_1" xmlns="http://www.w3.org/2000/svg" xmlns:xlink="http://www.w3.org/1999/xlink" x="0px" y="0px"
	 viewBox="0 0 500 500" style="enable-background:new 0 0 500 500;" xml:space="preserve">
<style type="text/css">
	.st0{fill:none;stroke:#26ACF5;stroke-width:2;stroke-linecap:round;stroke-linejoin:round;stroke-miterlimit:10;}
	.st1{enable-background:new    ;}
</style>
<g>
	<path class="st0" d="M227.2,372.2c-23.4,1.1-47.5-3.5-65.5-13.9c-16.3-9.4-24.5-21.8-24.4-34.1l0.1-29.7c0,12.4,8.1,24.7,24.4,34.1
		c17.9,10.4,42,15,65.4,13.9"/>
	<g>
		<g class="st1">
			<path class="st0" d="M227.2,338.5c-23.4,1.1-47.5-3.5-65.4-13.9c-16.3-9.4-24.5-21.8-24.4-34.1l0.1-29.7
				c0,12.4,8.1,24.7,24.4,34.1c17.9,10.3,41.9,15,65.3,13.9"/>
		</g>
	</g>
	<g>
		<g class="st1">
			<path class="st0" d="M227.1,304.7c-23.4,1.1-47.4-3.5-65.3-13.9c-16.3-9.4-24.5-21.8-24.4-34.1l0.1-29.7
				c0,12.4,8.1,24.7,24.4,34.1c17.9,10.3,41.9,15,65.2,13.9"/>
		</g>
	</g>
	<g>
		<g class="st1">
			<path class="st0" d="M227,271c-23.3,1.1-47.3-3.6-65.2-13.9c-16.3-9.4-24.5-21.8-24.4-34.1l0.1-29.7c0,12.4,8.1,24.7,24.4,34.1
				c17.9,10.3,41.8,15,65.1,13.9"/>
		</g>
	</g>
	<g>
		<g class="st1">
			<path class="st0" d="M232.8,236.8c-25.1,2.2-51.7-2.3-71.1-13.5c-16.3-9.4-24.5-21.8-24.4-34.1l0.1-29.7
				c0,12.4,8.1,24.7,24.4,34.1c32.5,18.7,84.9,18.7,117.2,0c16-9.3,24-21.5,24.1-33.7l0,0l-0.1,29.7c0,2.4-0.3,4.9-1,7.3"/>
		</g>
	</g>
	<g>
		<g class="st1">
			<path class="st0" d="M303,126.2l-0.1,29.7c0,12.2-8.1,24.4-24.1,33.7c-32.3,18.7-84.7,18.7-117.2,0
				c-16.3-9.4-24.5-21.8-24.4-34.1l0.1-29.7"/>
		</g>
	</g>
	<g>
		<g>
			<polygon class="st0" points="232.9,404.2 227.3,401 226.9,240.2 232.5,243.5 			"/>
		</g>
		<g>
			<polygon class="st0" points="232.5,243.5 226.9,240.2 332.3,179.4 337.9,182.7 			"/>
		</g>
		<polyline class="st0" points="239.3,400.6 232.9,404.2 232.5,243.5 337.9,182.7 337.9,191 		"/>
		<g>
			<polygon class="st0" points="244.9,412.2 239.3,408.9 238.8,248.2 244.5,251.5 			"/>
		</g>
		<g>
			<polygon class="st0" points="244.5,251.5 238.8,248.2 344.2,187.4 349.9,190.6 			"/>
		</g>
		<polyline class="st0" points="251.7,408.3 244.9,412.2 244.5,251.5 349.9,190.6 349.9,201.1 		"/>
		<g>
			<g class="st1">
				<g>
					<polygon class="st0" points="257.3,422.1 251.7,418.8 251.2,258.1 256.9,261.3 					"/>
				</g>
				<g>
					<polygon class="st0" points="256.9,261.3 251.2,258.1 356.6,197.2 362.3,200.5 					"/>
				</g>
				<g>
					<polygon class="st0" points="362.3,200.5 362.7,361.2 257.3,422.1 256.9,261.3 					"/>
				</g>
			</g>
		</g>
		<g>
			<g>
				<polygon class="st0" points="355.8,287.3 355.8,297 263.8,350.1 263.8,340.5 				"/>
			</g>
			<g>
				<polygon class="st0" points="355.7,246.2 355.7,255.8 263.7,309 263.7,299.3 				"/>
			</g>
			<g>
				<polygon class="st0" points="325.8,242.8 325.9,252.4 263.6,288.4 263.6,278.7 				"/>
			</g>
			<g>
				<polygon class="st0" points="355.8,266.8 355.8,276.4 263.8,329.6 263.7,319.9 				"/>
			</g>
			<g>
				<polygon class="st0" points="355.9,328.5 356,338.2 263.9,391.3 263.9,381.7 				"/>
			</g>
			<g>
				<polygon class="st0" points="355.9,307.9 355.9,317.6 263.9,370.7 263.8,361.1 				"/>
			</g>
		</g>
	</g>
	<ellipse class="st0" cx="220.2" cy="126.1" rx="82.8" ry="48.1"/>
</g>
</svg>
