<?xml version="1.0" encoding="utf-8"?>
<!-- Generator: Adobe Illustrator 22.1.0, SVG Export Plug-In . SVG Version: 6.00 Build 0)  -->
<svg version="1.1" id="Layer_1" xmlns="http://www.w3.org/2000/svg" xmlns:xlink="http://www.w3.org/1999/xlink" x="0px" y="0px"
	 viewBox="0 0 570 500" style="enable-background:new 0 0 570 500;" xml:space="preserve">
<style type="text/css">
	.st0{fill:none;stroke:#26ACF5;stroke-width:2;stroke-linecap:round;stroke-linejoin:round;stroke-miterlimit:10;}
	.st1{fill:none;stroke:#26ACF5;stroke-width:2;stroke-linecap:round;stroke-linejoin:round;}
	.st2{fill:none;stroke:#26ACF5;stroke-width:2;stroke-linecap:round;stroke-linejoin:round;stroke-dasharray:4.5812,7.3299;}
	.st3{fill:none;stroke:#26ACF5;stroke-width:2;stroke-linecap:round;stroke-linejoin:round;stroke-dasharray:5.3811,8.6098;}
	.st4{fill:none;stroke:#26ACF5;stroke-width:2;stroke-linecap:round;stroke-linejoin:round;stroke-dasharray:4.7784,7.6455;}
	.st5{fill:none;stroke:#26ACF5;stroke-width:2;stroke-linecap:round;stroke-linejoin:round;stroke-dasharray:4.7841,7.6545;}
	.st6{fill:none;stroke:#26ACF5;stroke-width:2;stroke-linecap:round;stroke-linejoin:round;stroke-dasharray:5.3927,8.6284;}
</style>
<g>
	<g>
		<polygon class="st0" points="23.1,205.7 23.1,247.9 58.1,263.7 58.1,221.5 93.2,205.7 58.1,191.3 		"/>
		<polyline class="st0" points="58.1,263.7 93.2,247.9 93.2,205.7 		"/>
		<line class="st0" x1="58.1" y1="221.5" x2="23.1" y2="205.7"/>
	</g>
	<g>
		<polygon class="st0" points="115.6,156.5 115.6,206.6 157.3,225.5 157.3,175.3 199,156.5 157.3,139.4 		"/>
		<polyline class="st0" points="157.3,225.5 199,206.6 199,156.5 		"/>
		<line class="st0" x1="115.6" y1="156.5" x2="157.3" y2="175.3"/>
	</g>
	<g>
		<polygon class="st0" points="128.4,260.9 128.4,319.6 177.2,341.7 177.2,283 226,260.9 177.2,240.9 		"/>
		<polyline class="st0" points="177.2,341.7 226,319.6 226,260.9 		"/>
		<line class="st0" x1="128.4" y1="260.9" x2="177.2" y2="283"/>
	</g>
	<g>
		<polygon class="st0" points="449.2,284.5 449.2,343.3 498,365.4 498,306.6 546.9,284.5 498,264.5 		"/>
		<polyline class="st0" points="498,365.4 546.9,343.3 546.9,284.5 		"/>
		<line class="st0" x1="449.2" y1="284.5" x2="498" y2="306.6"/>
	</g>
	<g>
		<polygon class="st0" points="410.1,149 410.1,191.1 445.2,206.9 445.2,164.8 480.2,149 445.2,134.6 		"/>
		<polyline class="st0" points="445.2,206.9 480.2,191.1 480.2,149 		"/>
		<line class="st0" x1="410.1" y1="149" x2="445.2" y2="164.8"/>
	</g>
	<g>
		<polygon class="st0" points="241.6,187.6 241.6,272.1 311.8,303.8 311.8,219.3 382.1,187.6 311.8,158.7 		"/>
		<polyline class="st0" points="311.8,303.8 382.1,272.1 382.1,187.6 		"/>
		<line class="st0" x1="241.6" y1="187.6" x2="311.8" y2="219.3"/>
	</g>
	<g>
		<g>
			<line class="st1" x1="136.7" y1="190.8" x2="134.4" y2="191.9"/>
			<line class="st2" x1="127.8" y1="195" x2="98.7" y2="208.5"/>
			<line class="st1" x1="95.4" y1="210.1" x2="93.2" y2="211.1"/>
		</g>
	</g>
	<g>
		<g>
			<line class="st1" x1="178.2" y1="191" x2="180.4" y2="192"/>
			<line class="st3" x1="188.3" y1="195.6" x2="235.4" y2="216.8"/>
			<line class="st1" x1="239.3" y1="218.6" x2="241.6" y2="219.6"/>
		</g>
	</g>
	<g>
		<g>
			<line class="st1" x1="347.1" y1="245.9" x2="349.4" y2="246.9"/>
			<line class="st4" x1="356.3" y1="250.1" x2="443.4" y2="289.5"/>
			<line class="st1" x1="446.9" y1="291" x2="449.2" y2="292.1"/>
		</g>
	</g>
	<g>
		<g>
			<line class="st1" x1="382.1" y1="198.4" x2="384.4" y2="197.4"/>
			<line class="st5" x1="391.3" y1="194.2" x2="421.9" y2="180.5"/>
			<line class="st1" x1="425.4" y1="178.9" x2="427.7" y2="177.9"/>
		</g>
	</g>
	<g>
		<g>
			<line class="st1" x1="276.8" y1="245.5" x2="274.5" y2="246.5"/>
			<line class="st6" x1="266.6" y1="250.1" x2="232.2" y2="265.7"/>
			<line class="st1" x1="228.3" y1="267.4" x2="226" y2="268.5"/>
		</g>
	</g>
</g>
</svg>
