<?xml version="1.0" encoding="utf-8"?>
<!-- Generator: Adobe Illustrator 22.1.0, SVG Export Plug-In . SVG Version: 6.00 Build 0)  -->
<svg version="1.1" id="Layer_1" xmlns="http://www.w3.org/2000/svg" xmlns:xlink="http://www.w3.org/1999/xlink" x="0px" y="0px"
	 viewBox="0 0 500 500" style="enable-background:new 0 0 500 500;" xml:space="preserve">
<style type="text/css">
	.st0{fill:none;stroke:#26ACF5;stroke-width:2;stroke-linecap:round;stroke-linejoin:round;stroke-miterlimit:10;}
	.st1{fill:#26ACF5;}
</style>
<g>
	<g>
		<g>
			<path class="st0" d="M427.8,309.4c2.9,1.6,2.9,4.3,0,6L229,430.9c-2.8,1.6-7.4,1.6-10.3,0L83.4,352.8c-2.9-1.6-2.9-4.3,0-6
				l198.8-115.5c2.8-1.6,7.4-1.6,10.3,0L427.8,309.4z M301.5,377.4l34.1-19.8c2.6-1.5,2.5-3.9,0-5.4l-26.4-15.3
				c-2.6-1.5-6.7-1.5-9.3,0l-34.1,19.8c-2.6,1.5-2.5,3.9,0,5.4l26.4,15.3C294.8,378.8,298.9,378.8,301.5,377.4"/>
		</g>
	</g>
	<path class="st0" d="M288.8,66.8c0-3.3-2.3-4.6-5.2-2.9L83.5,179.3c-2.9,1.6-5.2,5.6-5.1,8.9l0.4,155.5c0,3.3,2.3,4.6,5.2,2.9
		l200.1-116.3c2.9-1.6,5.2-5.6,5.1-8.9L288.8,66.8z M183.6,125.5c1.1-0.6,1.9-0.1,1.9,1.1c0,1.2-0.8,2.7-1.9,3.3
		c-1.1,0.6-1.9,0.1-1.9-1.1C181.7,127.5,182.5,126.1,183.6,125.5z M277,216.7L91,324.1c-3.3,1.9-6,0.4-6-3.4l-0.3-122.9
		c0-3.8,2.7-8.5,6-10.4L276.6,80c3.3-1.9,6-0.4,6,3.4l0.3,122.9C283,210.2,280.3,214.8,277,216.7z"/>
	<g>
		<path class="st0" d="M283,206.3c0,3.8-2.7,8.5-6,10.4l-112.8,65.1L91,324.1c-3.3,1.9-6,0.4-6-3.4l-0.3-122.9c0-3.8,2.7-8.5,6-10.4
			l91.6-52.9L276.6,80c3.3-1.9,6-0.4,6,3.5L283,206.3z"/>
	</g>
	<path class="st0" d="M265.8,362.1l26.4,15.3c2.6,1.5,6.7,1.5,9.3,0l34.1-19.8c2.6-1.5,2.5-3.9,0-5.4l-26.4-15.3
		c-2.6-1.5-6.7-1.5-9.3,0l-34.1,19.8C263.2,358.2,263.2,360.6,265.8,362.1z"/>
	<path class="st0" d="M429.8,313.2C429.8,313.2,429.8,313.2,429.8,313.2c-0.1,0.3-0.2,0.5-0.4,0.8c0,0-0.1,0.1-0.1,0.1
		c-0.2,0.2-0.3,0.4-0.6,0.6c-0.1,0.1-0.3,0.3-0.5,0.4c-0.2,0.1-0.3,0.2-0.5,0.3L229,430.9c-0.4,0.3-0.9,0.5-1.4,0.6
		c-0.2,0.1-0.4,0.1-0.5,0.2c-0.2,0.1-0.5,0.1-0.7,0.2c-0.3,0.1-0.6,0.1-0.9,0.2c-0.1,0-0.1,0-0.2,0c-0.4,0-0.8,0.1-1.2,0.1
		c-0.1,0-0.1,0-0.2,0c-0.4,0-0.8,0-1.2-0.1c-0.1,0-0.1,0-0.2,0c-0.4,0-0.8-0.1-1.2-0.2c-0.1,0-0.1,0-0.2-0.1c-0.3-0.1-0.7-0.2-1-0.3
		c-0.1,0-0.1,0-0.2-0.1c-0.4-0.2-0.8-0.3-1.1-0.5L83.4,352.8c-1.4-0.8-2.2-1.9-2.1-3l0,9.6c0,1.1,0.7,2.2,2.1,3l135.3,78.1
		c0.3,0.2,0.7,0.4,1.1,0.5c0,0,0,0,0.1,0c0.1,0,0.1,0,0.2,0.1c0.2,0.1,0.4,0.2,0.7,0.2c0.1,0,0.2,0.1,0.4,0.1c0.1,0,0.1,0,0.2,0.1
		c0.1,0,0.1,0,0.2,0c0.2,0,0.5,0.1,0.7,0.1c0.1,0,0.2,0,0.3,0c0.1,0,0.1,0,0.2,0c0.1,0,0.2,0,0.3,0c0.2,0,0.5,0,0.7,0
		c0.1,0,0.1,0,0.2,0c0.1,0,0.1,0,0.2,0c0.1,0,0.2,0,0.3,0c0.3,0,0.5,0,0.8-0.1c0,0,0.1,0,0.1,0c0.1,0,0.1,0,0.2,0
		c0.2,0,0.4-0.1,0.6-0.1c0.1,0,0.2,0,0.3-0.1c0.2-0.1,0.5-0.1,0.7-0.2c0.1,0,0.3-0.1,0.4-0.1c0.1,0,0.1-0.1,0.2-0.1
		c0.5-0.2,1-0.4,1.4-0.6L427.8,325c0,0,0.1,0,0.1-0.1c0.1-0.1,0.2-0.2,0.4-0.3c0.2-0.1,0.4-0.2,0.5-0.4c0,0,0,0,0,0
		c0.2-0.2,0.3-0.3,0.4-0.5c0,0,0.1-0.1,0.1-0.1c0,0,0.1-0.1,0.1-0.1c0-0.1,0.1-0.1,0.1-0.2c0.1-0.1,0.1-0.3,0.2-0.4c0,0,0,0,0-0.1
		c0,0,0-0.1,0-0.1c0-0.1,0.1-0.2,0.1-0.3c0-0.1,0-0.3,0-0.4c0,0,0,0,0-0.1l0-9.6C429.9,312.7,429.9,312.9,429.8,313.2z"/>
	<g>
		<g>
			<path class="st1" d="M282.7,245.7c0.3,0,0.5,0.1,0.7,0.2l6.2,3.5l-8,4.8c-0.2,0.1-0.4,0.2-0.7,0.2c-0.3,0-0.5-0.1-0.7-0.2
				l-6.2-3.5l8-4.8C282.1,245.8,282.4,245.7,282.7,245.7 M282.7,244.7c-0.4,0-0.9,0.1-1.2,0.3l-8.3,5c-0.7,0.4-0.7,1,0,1.4l6.5,3.7
				c0.3,0.2,0.8,0.3,1.2,0.3c0.4,0,0.9-0.1,1.2-0.3l8.3-5c0.7-0.4,0.7-1,0-1.4l-6.5-3.7C283.5,244.8,283.1,244.7,282.7,244.7
				L282.7,244.7z"/>
		</g>
		<g>
			<path class="st1" d="M271,252.6c0.3,0,0.5,0.1,0.7,0.2l6.2,3.5l-8,4.8c-0.2,0.1-0.4,0.2-0.7,0.2c-0.3,0-0.5-0.1-0.7-0.2l-6.2-3.5
				l8-4.8C270.4,252.7,270.7,252.6,271,252.6 M261.9,257.8L261.9,257.8L261.9,257.8 M261.9,257.8L261.9,257.8L261.9,257.8
				 M271,251.6c-0.4,0-0.9,0.1-1.2,0.3l-8.3,5c-0.7,0.4-0.7,1,0,1.4l6.5,3.7c0.3,0.2,0.8,0.3,1.2,0.3c0.4,0,0.9-0.1,1.2-0.3l8.3-5
				c0.7-0.4,0.7-1,0-1.4l-6.5-3.7C271.9,251.7,271.4,251.6,271,251.6L271,251.6z"/>
		</g>
		<g>
			<path class="st1" d="M259.1,259.7c0.3,0,0.5,0.1,0.7,0.1l6.2,3.5l-8,4.8c-0.2,0.1-0.5,0.2-0.7,0.2c-0.3,0-0.5-0.1-0.7-0.2
				l-6.2-3.5l8.1-4.8C258.5,259.8,258.8,259.7,259.1,259.7 M259.1,258.7c-0.5,0-0.9,0.1-1.2,0.3l-8.3,4.9c-0.7,0.4-0.7,1,0,1.4
				l6.5,3.7c0.3,0.2,0.8,0.3,1.2,0.3c0.5,0,0.9-0.1,1.3-0.3l8.3-4.9c0.7-0.4,0.7-1,0-1.4l-6.5-3.7
				C260,258.8,259.5,258.7,259.1,258.7L259.1,258.7z"/>
		</g>
		<g>
			<path class="st1" d="M247.1,266.9c0.3,0,0.5,0.1,0.7,0.2l6.2,3.5l-8,4.8c-0.2,0.1-0.4,0.2-0.7,0.2c-0.3,0-0.5-0.1-0.7-0.2
				l-6.2-3.5l8-4.8C246.5,267,246.8,266.9,247.1,266.9 M247.1,265.9c-0.4,0-0.9,0.1-1.2,0.3l-8.3,4.9c-0.7,0.4-0.7,1,0,1.4l6.5,3.7
				c0.3,0.2,0.8,0.3,1.2,0.3c0.4,0,0.9-0.1,1.2-0.3l8.3-4.9c0.7-0.4,0.7-1,0-1.4l-6.5-3.7C247.9,266,247.5,265.9,247.1,265.9
				L247.1,265.9z"/>
		</g>
		<g>
			<path class="st1" d="M235.2,274c0.3,0,0.5,0.1,0.7,0.1l6.2,3.5l-8,4.8c-0.2,0.1-0.5,0.2-0.7,0.2c-0.3,0-0.5-0.1-0.7-0.2l-6.2-3.5
				l8.1-4.8C234.6,274,234.9,274,235.2,274 M226,279.1L226,279.1L226,279.1 M235.2,273c-0.5,0-0.9,0.1-1.2,0.3l-8.3,5
				c-0.7,0.4-0.7,1,0,1.4l6.5,3.7c0.3,0.2,0.8,0.3,1.2,0.3c0.5,0,0.9-0.1,1.3-0.3l8.3-5c0.7-0.4,0.7-1,0-1.4l-6.5-3.7
				C236,273.1,235.6,273,235.2,273L235.2,273z"/>
		</g>
		<g>
			<path class="st1" d="M223.2,281.1c0.3,0,0.5,0.1,0.7,0.2l6.2,3.5l-8,4.8c-0.2,0.1-0.4,0.2-0.7,0.2c-0.3,0-0.5-0.1-0.7-0.2
				l-6.2-3.5l8-4.8C222.7,281.1,222.9,281.1,223.2,281.1 M214.1,286.2L214.1,286.2L214.1,286.2 M214.1,286.2L214.1,286.2
				C214.1,286.2,214.1,286.2,214.1,286.2 M223.2,280.1c-0.4,0-0.9,0.1-1.2,0.3l-8.3,5c-0.7,0.4-0.7,1,0,1.4l6.5,3.7
				c0.3,0.2,0.8,0.3,1.2,0.3c0.4,0,0.9-0.1,1.2-0.3l8.3-5c0.7-0.4,0.7-1,0-1.4l-6.5-3.7C224.1,280.2,223.7,280.1,223.2,280.1
				L223.2,280.1z"/>
		</g>
		<g>
			<path class="st1" d="M211.3,288.2c0.3,0,0.5,0.1,0.7,0.1l6.2,3.5l-8,4.8c-0.2,0.1-0.4,0.2-0.7,0.2c-0.3,0-0.5-0.1-0.7-0.2
				l-6.2-3.5l8-4.8C210.8,288.2,211,288.2,211.3,288.2 M211.3,287.2c-0.5,0-0.9,0.1-1.3,0.3l-8.3,5c-0.7,0.4-0.7,1,0,1.4l6.5,3.7
				c0.3,0.2,0.8,0.3,1.2,0.3c0.5,0,0.9-0.1,1.2-0.3l8.3-5c0.7-0.4,0.7-1,0-1.4l-6.5-3.7C212.2,287.2,211.8,287.2,211.3,287.2
				L211.3,287.2z"/>
		</g>
		<g>
			<path class="st1" d="M199.4,295.2c0.3,0,0.5,0.1,0.7,0.1l6.2,3.5l-8,4.8c-0.2,0.1-0.5,0.2-0.7,0.2c-0.3,0-0.5-0.1-0.7-0.2
				l-6.2-3.5l8-4.8C198.8,295.3,199.1,295.2,199.4,295.2 M199.4,294.2c-0.5,0-0.9,0.1-1.2,0.3l-8.3,5c-0.7,0.4-0.7,1,0,1.4l6.5,3.7
				c0.3,0.2,0.8,0.3,1.2,0.3c0.5,0,0.9-0.1,1.3-0.3l8.3-5c0.7-0.4,0.7-1,0-1.4l-6.5-3.7C200.3,294.3,199.8,294.2,199.4,294.2
				L199.4,294.2z"/>
		</g>
		<g>
			<path class="st1" d="M187.5,302.3c0.3,0,0.5,0.1,0.7,0.2l6.2,3.5l-8,4.8c-0.2,0.1-0.4,0.2-0.7,0.2c-0.3,0-0.5-0.1-0.7-0.2
				l-6.2-3.5l8-4.8C186.9,302.4,187.2,302.3,187.5,302.3 M187.5,301.3c-0.4,0-0.9,0.1-1.2,0.3l-8.3,4.9c-0.7,0.4-0.7,1,0,1.4
				l6.5,3.7c0.3,0.2,0.8,0.3,1.2,0.3c0.4,0,0.9-0.1,1.2-0.3l8.3-4.9c0.7-0.4,0.7-1,0-1.4l-6.5-3.7
				C188.4,301.4,187.9,301.3,187.5,301.3L187.5,301.3z"/>
		</g>
		<g>
			<path class="st1" d="M175.6,309.4c0.3,0,0.5,0.1,0.7,0.1l6.2,3.5l-8.1,4.8c-0.2,0.1-0.4,0.2-0.7,0.2c-0.3,0-0.5-0.1-0.7-0.2
				l-6.2-3.5l8-4.8C175,309.5,175.3,309.4,175.6,309.4 M175.6,308.4c-0.5,0-0.9,0.1-1.3,0.3l-8.3,5c-0.7,0.4-0.7,1,0,1.4l6.5,3.7
				c0.3,0.2,0.8,0.3,1.2,0.3c0.5,0,0.9-0.1,1.2-0.3l8.3-5c0.7-0.4,0.7-1,0-1.4l-6.5-3.7C176.4,308.5,176,308.4,175.6,308.4
				L175.6,308.4z"/>
		</g>
		<g>
			<path class="st1" d="M163.7,316.5c0.3,0,0.5,0.1,0.7,0.2l6.2,3.5l-8,4.8c-0.2,0.1-0.4,0.2-0.7,0.2c-0.3,0-0.5-0.1-0.7-0.2
				l-6.2-3.5l8-4.8C163.1,316.6,163.4,316.5,163.7,316.5 M154.5,321.7L154.5,321.7L154.5,321.7 M154.5,321.7L154.5,321.7
				C154.5,321.7,154.5,321.7,154.5,321.7 M163.7,315.5c-0.4,0-0.9,0.1-1.2,0.3l-8.3,4.9c-0.7,0.4-0.7,1,0,1.4l6.5,3.7
				c0.3,0.2,0.8,0.3,1.2,0.3c0.4,0,0.9-0.1,1.2-0.3l8.3-4.9c0.7-0.4,0.7-1,0-1.4l-6.5-3.7C164.5,315.6,164.1,315.5,163.7,315.5
				L163.7,315.5z"/>
		</g>
		<g>
			<path class="st1" d="M151.7,323.6c0.3,0,0.5,0.1,0.7,0.2l6.2,3.5l-8,4.8c-0.2,0.1-0.4,0.2-0.7,0.2c-0.3,0-0.5-0.1-0.7-0.2
				l-6.2-3.5l8-4.8C151.2,323.7,151.4,323.6,151.7,323.6 M142.6,328.8L142.6,328.8L142.6,328.8 M142.6,328.8L142.6,328.8
				C142.6,328.8,142.6,328.8,142.6,328.8 M151.7,322.6c-0.4,0-0.9,0.1-1.2,0.3l-8.3,5c-0.7,0.4-0.7,1,0,1.4l6.5,3.7
				c0.3,0.2,0.8,0.3,1.2,0.3c0.4,0,0.9-0.1,1.2-0.3l8.3-5c0.7-0.4,0.7-1,0-1.4l-6.5-3.7C152.6,322.7,152.2,322.6,151.7,322.6
				L151.7,322.6z"/>
		</g>
		<g>
			<path class="st1" d="M139.8,330.7c0.3,0,0.5,0.1,0.7,0.1l6.2,3.5l-8,4.8c-0.2,0.1-0.5,0.2-0.7,0.2c-0.3,0-0.5-0.1-0.7-0.2
				l-6.2-3.5l8-4.8C139.3,330.8,139.6,330.7,139.8,330.7 M139.8,329.7c-0.5,0-0.9,0.1-1.2,0.3l-8.3,5c-0.7,0.4-0.7,1,0,1.4l6.5,3.7
				c0.3,0.2,0.8,0.3,1.2,0.3c0.5,0,0.9-0.1,1.3-0.3l8.3-5c0.7-0.4,0.7-1,0-1.4L141,330C140.7,329.8,140.3,329.7,139.8,329.7
				L139.8,329.7z"/>
		</g>
		<g>
			<path class="st1" d="M127.9,337.8c0.3,0,0.5,0.1,0.7,0.2l6.2,3.5l-8,4.8c-0.2,0.1-0.4,0.2-0.7,0.2c-0.3,0-0.5-0.1-0.7-0.2
				l-6.2-3.5l8-4.8C127.4,337.8,127.6,337.8,127.9,337.8 M127.9,336.8c-0.4,0-0.9,0.1-1.2,0.3l-8.3,4.9c-0.7,0.4-0.7,1,0,1.4
				l6.5,3.7c0.3,0.2,0.8,0.3,1.2,0.3c0.4,0,0.9-0.1,1.2-0.3l8.3-4.9c0.7-0.4,0.7-1,0-1.4l-6.5-3.7
				C128.8,336.9,128.3,336.8,127.9,336.8L127.9,336.8z"/>
		</g>
		<g>
			<path class="st1" d="M116,344.9c0.3,0,0.5,0.1,0.7,0.1l6.2,3.5l-8.1,4.8c-0.2,0.1-0.4,0.2-0.7,0.2c-0.3,0-0.5-0.1-0.7-0.2
				l-6.2-3.5l8-4.8C115.4,344.9,115.7,344.9,116,344.9 M116,343.9c-0.5,0-0.9,0.1-1.3,0.3l-8.3,5c-0.7,0.4-0.7,1,0,1.4l6.5,3.7
				c0.3,0.2,0.8,0.3,1.2,0.3c0.5,0,0.9-0.1,1.2-0.3l8.3-5c0.7-0.4,0.7-1,0-1.4l-6.5-3.7C116.9,344,116.4,343.9,116,343.9L116,343.9z
				"/>
		</g>
		<g>
			<path class="st1" d="M292.6,251.3c0.3,0,0.5,0.1,0.7,0.2l6.2,3.5l-27.8,16.5c-0.2,0.1-0.4,0.2-0.7,0.2c-0.3,0-0.5-0.1-0.7-0.2
				l-6.2-3.5l27.8-16.5C292.1,251.4,292.3,251.3,292.6,251.3 M292.6,250.3c-0.4,0-0.9,0.1-1.2,0.3l-28.1,16.7c-0.7,0.4-0.7,1,0,1.4
				l6.5,3.7c0.3,0.2,0.8,0.3,1.2,0.3c0.4,0,0.9-0.1,1.2-0.3l28.1-16.7c0.7-0.4,0.7-1,0-1.4l-6.5-3.7
				C293.5,250.4,293,250.3,292.6,250.3L292.6,250.3z"/>
		</g>
		<g>
			<path class="st1" d="M260.9,270.2c0.3,0,0.5,0.1,0.7,0.1l6.2,3.5l-8.1,4.8c-0.2,0.1-0.5,0.2-0.7,0.2c-0.3,0-0.5-0.1-0.7-0.2
				l-6.2-3.5l8-4.8C260.3,270.2,260.6,270.2,260.9,270.2 M251.8,274.9L251.8,274.9L251.8,274.9 M260.9,269.2c-0.5,0-0.9,0.1-1.3,0.3
				l-8.3,5c-0.7,0.4-0.7,1,0,1.4l6.5,3.7c0.3,0.2,0.8,0.3,1.2,0.3c0.5,0,0.9-0.1,1.2-0.3l8.3-4.9c0.7-0.4,0.7-1,0-1.4l-6.5-3.7
				C261.8,269.3,261.3,269.2,260.9,269.2L260.9,269.2z"/>
		</g>
		<g>
			<path class="st1" d="M249,277.3c0.3,0,0.5,0.1,0.7,0.2l6.2,3.5l-8,4.8c-0.2,0.1-0.5,0.2-0.7,0.2c-0.3,0-0.5-0.1-0.7-0.1l-6.2-3.5
				l8-4.8C248.4,277.3,248.7,277.3,249,277.3 M249,276.3c-0.4,0-0.9,0.1-1.2,0.3l-8.3,5c-0.7,0.4-0.7,1,0,1.4l6.5,3.7
				c0.3,0.2,0.8,0.3,1.2,0.3c0.5,0,0.9-0.1,1.3-0.3l8.3-5c0.7-0.4,0.7-1,0-1.4l-6.5-3.7C249.8,276.4,249.4,276.3,249,276.3
				L249,276.3z"/>
		</g>
		<g>
			<path class="st1" d="M237.1,284.4c0.3,0,0.5,0.1,0.7,0.2l6.2,3.5l-8,4.8c-0.2,0.1-0.4,0.2-0.7,0.2c-0.3,0-0.5-0.1-0.7-0.2
				l-6.2-3.5l8-4.8C236.5,284.4,236.8,284.4,237.1,284.4 M237.1,283.4c-0.5,0-0.9,0.1-1.2,0.3l-8.3,5c-0.7,0.4-0.7,1,0,1.4l6.5,3.7
				c0.3,0.2,0.8,0.3,1.2,0.3c0.4,0,0.9-0.1,1.2-0.3l8.3-5c0.7-0.4,0.7-1,0-1.4l-6.5-3.7C237.9,283.5,237.5,283.4,237.1,283.4
				L237.1,283.4z"/>
		</g>
		<g>
			<path class="st1" d="M225.2,291.4c0.3,0,0.5,0.1,0.7,0.2l6.2,3.5l-8,4.8c-0.2,0.1-0.5,0.2-0.7,0.2c-0.3,0-0.5-0.1-0.7-0.2
				l-6.2-3.5l8.1-4.8C224.6,291.5,224.9,291.4,225.2,291.4 M225.2,290.4c-0.5,0-0.9,0.1-1.2,0.3l-8.3,4.9c-0.7,0.4-0.7,1,0,1.4
				l6.5,3.7c0.3,0.2,0.8,0.3,1.2,0.3c0.5,0,0.9-0.1,1.3-0.3l8.3-4.9c0.7-0.4,0.7-1,0-1.4l-6.5-3.7
				C226,290.5,225.6,290.4,225.2,290.4L225.2,290.4z"/>
		</g>
		<g>
			<path class="st1" d="M213.2,298.5c0.3,0,0.5,0.1,0.7,0.2l6.2,3.5l-8,4.8c-0.2,0.1-0.4,0.2-0.7,0.2c-0.3,0-0.5-0.1-0.7-0.2
				l-6.2-3.5l8-4.8C212.7,298.6,213,298.5,213.2,298.5 M213.2,297.5c-0.4,0-0.9,0.1-1.2,0.3l-8.3,5c-0.7,0.4-0.7,1,0,1.4l6.5,3.7
				c0.3,0.2,0.8,0.3,1.2,0.3c0.4,0,0.9-0.1,1.2-0.3l8.3-5c0.7-0.4,0.7-1,0-1.4l-6.5-3.7C214.1,297.6,213.7,297.5,213.2,297.5
				L213.2,297.5z"/>
		</g>
		<g>
			<path class="st1" d="M201.4,305.6c0.3,0,0.5,0.1,0.7,0.2l6.2,3.5l-8,4.8c-0.2,0.1-0.5,0.2-0.7,0.2c-0.3,0-0.5-0.1-0.7-0.2
				l-6.2-3.5l8-4.8C200.8,305.7,201.1,305.6,201.4,305.6 M201.4,304.6c-0.5,0-0.9,0.1-1.3,0.3l-8.3,5c-0.7,0.4-0.7,1,0,1.4l6.5,3.7
				c0.3,0.2,0.8,0.3,1.2,0.3c0.5,0,0.9-0.1,1.2-0.3l8.3-5c0.7-0.4,0.7-1,0-1.4l-6.5-3.7C202.2,304.7,201.8,304.6,201.4,304.6
				L201.4,304.6z"/>
		</g>
		<g>
			<path class="st1" d="M189.4,312.7c0.3,0,0.5,0.1,0.7,0.2l6.2,3.5l-8,4.8c-0.2,0.1-0.5,0.2-0.7,0.2c-0.3,0-0.5-0.1-0.7-0.2
				l-6.2-3.5l8-4.8C188.8,312.8,189.1,312.7,189.4,312.7 M189.4,311.7c-0.5,0-0.9,0.1-1.2,0.3l-8.3,4.9c-0.7,0.4-0.7,1,0,1.4
				l6.5,3.7c0.3,0.2,0.8,0.3,1.2,0.3c0.5,0,0.9-0.1,1.3-0.3l8.3-4.9c0.7-0.4,0.7-1,0-1.4l-6.5-3.7
				C190.3,311.8,189.8,311.7,189.4,311.7L189.4,311.7z"/>
		</g>
		<g>
			<path class="st1" d="M177.5,319.8c0.3,0,0.5,0.1,0.7,0.2l6.2,3.5l-8,4.8c-0.2,0.1-0.4,0.2-0.7,0.2c-0.3,0-0.5-0.1-0.7-0.2
				l-6.2-3.5l8-4.8C176.9,319.9,177.2,319.8,177.5,319.8 M177.5,318.8c-0.4,0-0.9,0.1-1.2,0.3l-8.3,4.9c-0.7,0.4-0.7,1,0,1.4
				l6.5,3.7c0.3,0.2,0.8,0.3,1.2,0.3c0.4,0,0.9-0.1,1.2-0.3l8.3-4.9c0.7-0.4,0.7-1,0-1.4l-6.5-3.7
				C178.3,318.9,177.9,318.8,177.5,318.8L177.5,318.8z"/>
		</g>
		<g>
			<path class="st1" d="M165.6,326.9c0.3,0,0.5,0.1,0.7,0.1l6.2,3.5l-8,4.8c-0.2,0.1-0.5,0.2-0.7,0.2c-0.3,0-0.5-0.1-0.7-0.2
				l-6.2-3.5l8-4.8C165,327,165.3,326.9,165.6,326.9 M156.5,331.7L156.5,331.7L156.5,331.7 M165.6,325.9c-0.5,0-0.9,0.1-1.3,0.3
				l-8.3,4.9c-0.7,0.4-0.7,1,0,1.4l6.5,3.7c0.3,0.2,0.8,0.3,1.2,0.3c0.5,0,0.9-0.1,1.2-0.3l8.3-5c0.7-0.4,0.7-1,0-1.4l-6.5-3.7
				C166.4,326,166,325.9,165.6,325.9L165.6,325.9z"/>
		</g>
		<g>
			<path class="st1" d="M153.7,334c0.3,0,0.5,0.1,0.7,0.2l6.2,3.5l-8,4.8c-0.2,0.1-0.5,0.2-0.7,0.2c-0.3,0-0.5-0.1-0.7-0.2l-6.2-3.5
				l8-4.8C153.1,334,153.4,334,153.7,334 M153.7,333c-0.4,0-0.9,0.1-1.2,0.3l-8.3,5c-0.7,0.4-0.7,1,0,1.4l6.5,3.7
				c0.3,0.2,0.8,0.3,1.2,0.3c0.5,0,0.9-0.1,1.3-0.3l8.3-5c0.7-0.4,0.7-1,0-1.4l-6.5-3.7C154.5,333.1,154.1,333,153.7,333L153.7,333z
				"/>
		</g>
		<g>
			<path class="st1" d="M141.8,341.1c0.3,0,0.5,0.1,0.7,0.2l6.2,3.5l-8,4.8c-0.2,0.1-0.4,0.2-0.7,0.2c-0.3,0-0.5-0.1-0.7-0.2
				L133,346l8-4.8C141.2,341.1,141.5,341.1,141.8,341.1 M141.8,340.1c-0.4,0-0.9,0.1-1.2,0.3l-8.3,5c-0.7,0.4-0.7,1,0,1.4l6.5,3.7
				c0.3,0.2,0.8,0.3,1.2,0.3c0.4,0,0.9-0.1,1.2-0.3l8.3-4.9c0.7-0.4,0.7-1,0-1.4l-6.5-3.7C142.6,340.2,142.2,340.1,141.8,340.1
				L141.8,340.1z"/>
		</g>
		<g>
			<path class="st1" d="M129.9,348.2c0.3,0,0.5,0.1,0.7,0.2l6.2,3.5l-8,4.8c-0.2,0.1-0.5,0.2-0.7,0.2c-0.3,0-0.5-0.1-0.7-0.1
				l-6.2-3.5l8.1-4.8C129.3,348.2,129.6,348.2,129.9,348.2 M129.9,347.2c-0.5,0-0.9,0.1-1.2,0.3l-8.3,5c-0.7,0.4-0.7,1,0,1.4
				l6.5,3.7c0.3,0.2,0.8,0.3,1.2,0.3c0.5,0,0.9-0.1,1.3-0.3l8.3-5c0.7-0.4,0.7-1,0-1.4l-6.5-3.7
				C130.7,347.3,130.3,347.2,129.9,347.2L129.9,347.2z"/>
		</g>
		<g>
			<path class="st1" d="M302.6,257c0.3,0,0.5,0.1,0.7,0.2l6.2,3.5l-8.7,5.2c-0.2,0.1-0.4,0.2-0.7,0.2c-0.3,0-0.5-0.1-0.7-0.2
				l-6.2-3.5l8.7-5.2C302.1,257,302.3,257,302.6,257 M302.6,256c-0.4,0-0.9,0.1-1.2,0.3l-9,5.3c-0.7,0.4-0.7,1,0,1.4l6.5,3.7
				c0.3,0.2,0.8,0.3,1.2,0.3c0.4,0,0.9-0.1,1.2-0.3l9-5.3c0.7-0.4,0.7-1,0-1.4l-6.5-3.7C303.5,256.1,303.1,256,302.6,256L302.6,256z
				"/>
		</g>
		<g>
			<path class="st1" d="M290.2,264.3c0.3,0,0.5,0.1,0.7,0.2l6.2,3.5l-8.7,5.2c-0.2,0.1-0.4,0.2-0.7,0.2c-0.3,0-0.5-0.1-0.7-0.2
				l-6.2-3.5l8.7-5.2C289.7,264.4,290,264.3,290.2,264.3 M290.2,263.3c-0.5,0-0.9,0.1-1.3,0.3l-9,5.3c-0.7,0.4-0.7,1,0,1.4l6.5,3.7
				c0.3,0.2,0.8,0.3,1.2,0.3c0.4,0,0.9-0.1,1.2-0.3l9-5.3c0.7-0.4,0.7-1,0-1.4l-6.5-3.7C291.1,263.4,290.7,263.3,290.2,263.3
				L290.2,263.3z"/>
		</g>
		<g>
			<path class="st1" d="M312.6,262.6c0.3,0,0.5,0.1,0.7,0.2l16.1,9.1l-6,3.6c-0.2,0.1-0.4,0.2-0.7,0.2c-0.3,0-0.5-0.1-0.7-0.2
				l-16.1-9.1l6-3.6C312.1,262.6,312.3,262.6,312.6,262.6 M312.6,261.6c-0.4,0-0.9,0.1-1.2,0.3l-6.3,3.7c-0.7,0.4-0.7,1,0,1.4
				l16.4,9.2c0.3,0.2,0.8,0.3,1.2,0.3c0.4,0,0.9-0.1,1.2-0.3l6.3-3.7c0.7-0.4,0.7-1,0-1.4l-16.4-9.2
				C313.5,261.7,313,261.6,312.6,261.6L312.6,261.6z"/>
		</g>
		<g>
			<path class="st1" d="M302.7,268.5c0.3,0,0.5,0.1,0.7,0.2l6.2,3.5l-8.7,5.2c-0.2,0.1-0.5,0.2-0.7,0.2c-0.3,0-0.5-0.1-0.7-0.1
				l-6.2-3.5l8.7-5.2C302.2,268.5,302.4,268.5,302.7,268.5 M310,271.9L310,271.9 M292.9,274L292.9,274
				C292.9,274,292.9,274,292.9,274 M302.7,267.5c-0.4,0-0.9,0.1-1.2,0.3l-9,5.3c-0.7,0.4-0.7,1,0,1.4l6.5,3.7
				c0.3,0.2,0.8,0.3,1.2,0.3c0.5,0,0.9-0.1,1.3-0.3l9-5.3c0.7-0.4,0.7-1,0-1.4l-6.5-3.7C303.6,267.6,303.1,267.5,302.7,267.5
				L302.7,267.5z"/>
		</g>
		<g>
			<path class="st1" d="M265.1,279.2c0.3,0,0.5,0.1,0.7,0.2l6.2,3.5l-8,4.8c-0.2,0.1-0.4,0.2-0.7,0.2c-0.3,0-0.5-0.1-0.7-0.2
				l-6.2-3.5l8-4.8C264.5,279.3,264.8,279.2,265.1,279.2 M272.4,282.7L272.4,282.7 M265.1,278.2c-0.4,0-0.9,0.1-1.2,0.3l-8.3,4.9
				c-0.7,0.4-0.7,1,0,1.4l6.5,3.7c0.3,0.2,0.8,0.3,1.2,0.3c0.4,0,0.9-0.1,1.2-0.3l8.3-4.9c0.7-0.4,0.7-1,0-1.4l-6.5-3.7
				C266,278.3,265.5,278.2,265.1,278.2L265.1,278.2z"/>
		</g>
		<g>
			<path class="st1" d="M277.1,272.1c0.3,0,0.5,0.1,0.7,0.2l9.9,5.6l2.4,1.3l3.8,2.2l-16.2,9.6c-0.2,0.1-0.4,0.2-0.7,0.2
				c-0.3,0-0.5-0.1-0.7-0.2l-6.2-3.5l6.7-4c0.3-0.2,0.5-0.5,0.5-0.9c0-0.4-0.2-0.7-0.5-0.9l-8.4-4.8l8-4.8
				C276.6,272.1,276.8,272.1,277.1,272.1 M294.3,281.1L294.3,281.1 M269.8,287.7L269.8,287.7L269.8,287.7 M269.8,287.7L269.8,287.7
				L269.8,287.7 M277.1,271.1c-0.5,0-0.9,0.1-1.3,0.3l-8.3,4.9c-0.7,0.4-0.7,1,0,1.4l8.7,4.9l-6.9,4.1c-0.7,0.4-0.7,1,0,1.4l6.5,3.7
				c0.3,0.2,0.8,0.3,1.2,0.3c0.4,0,0.9-0.1,1.2-0.3l16.5-9.8c0.7-0.4,0.7-1,0-1.4l-4.1-2.3l-2.4-1.3l-9.9-5.6
				C278,271.2,277.6,271.1,277.1,271.1L277.1,271.1z"/>
		</g>
		<g>
			<path class="st1" d="M253.2,286.3c0.3,0,0.5,0.1,0.7,0.2l6.2,3.5l-8,4.8c-0.2,0.1-0.4,0.2-0.7,0.2c-0.3,0-0.5-0.1-0.7-0.1
				l-6.2-3.5l8-4.8C252.6,286.4,252.9,286.3,253.2,286.3 M253.2,285.3c-0.5,0-0.9,0.1-1.3,0.3l-8.3,5c-0.7,0.4-0.7,1,0,1.4l6.5,3.7
				c0.3,0.2,0.8,0.3,1.2,0.3c0.5,0,0.9-0.1,1.2-0.3l8.3-5c0.7-0.4,0.7-1,0-1.4l-6.5-3.7C254.1,285.4,253.6,285.3,253.2,285.3
				L253.2,285.3z"/>
		</g>
		<g>
			<path class="st1" d="M241.3,293.4c0.3,0,0.5,0.1,0.7,0.2l6.2,3.5l-8,4.8c-0.2,0.1-0.5,0.2-0.7,0.2c-0.3,0-0.5-0.1-0.7-0.1
				l-6.2-3.5l8-4.8C240.7,293.5,241,293.4,241.3,293.4 M232.2,298.6L232.2,298.6L232.2,298.6 M241.3,292.4c-0.5,0-0.9,0.1-1.2,0.3
				l-8.3,5c-0.7,0.4-0.7,1,0,1.4l6.5,3.7c0.3,0.2,0.8,0.3,1.2,0.3c0.5,0,0.9-0.1,1.3-0.3l8.3-5c0.7-0.4,0.7-1,0-1.4l-6.5-3.7
				C242.1,292.5,241.7,292.4,241.3,292.4L241.3,292.4z"/>
		</g>
		<g>
			<path class="st1" d="M229.4,300.5c0.3,0,0.5,0.1,0.7,0.2l6.2,3.5l-8.1,4.8c-0.2,0.1-0.4,0.2-0.7,0.2c-0.3,0-0.5-0.1-0.7-0.2
				l-6.2-3.5l8-4.8C228.8,300.5,229.1,300.5,229.4,300.5 M229.4,299.5c-0.5,0-0.9,0.1-1.3,0.3l-8.3,5c-0.7,0.4-0.7,1,0,1.4l6.5,3.7
				c0.3,0.2,0.8,0.3,1.2,0.3c0.4,0,0.9-0.1,1.2-0.3l8.3-4.9c0.7-0.4,0.7-1,0-1.4l-6.5-3.7C230.2,299.6,229.8,299.5,229.4,299.5
				L229.4,299.5z"/>
		</g>
		<g>
			<path class="st1" d="M217.4,307.6c0.3,0,0.5,0.1,0.7,0.2l6.2,3.5l-8,4.8c-0.2,0.1-0.4,0.2-0.7,0.2c-0.3,0-0.5-0.1-0.7-0.1
				l-6.2-3.5l8.1-4.8C216.9,307.6,217.2,307.6,217.4,307.6 M217.4,306.6c-0.5,0-0.9,0.1-1.2,0.3l-8.3,5c-0.7,0.4-0.7,1,0,1.4
				l6.5,3.7c0.3,0.2,0.8,0.3,1.2,0.3c0.5,0,0.9-0.1,1.2-0.3l8.3-5c0.7-0.4,0.7-1,0-1.4l-6.5-3.7
				C218.3,306.7,217.9,306.6,217.4,306.6L217.4,306.6z"/>
		</g>
		<g>
			<path class="st1" d="M205.5,314.7c0.3,0,0.5,0.1,0.7,0.2l6.2,3.5l-8,4.8c-0.2,0.1-0.4,0.2-0.7,0.2c-0.3,0-0.5-0.1-0.7-0.2
				l-6.2-3.5l8-4.8C205,314.7,205.3,314.7,205.5,314.7 M205.5,313.7c-0.4,0-0.9,0.1-1.2,0.3l-8.3,4.9c-0.7,0.4-0.7,1,0,1.4l6.5,3.7
				c0.3,0.2,0.8,0.3,1.2,0.3c0.4,0,0.9-0.1,1.2-0.3l8.3-4.9c0.7-0.4,0.7-1,0-1.4l-6.5-3.7C206.4,313.8,206,313.7,205.5,313.7
				L205.5,313.7z"/>
		</g>
		<g>
			<path class="st1" d="M193.6,321.8c0.3,0,0.5,0.1,0.7,0.2l6.2,3.5l-8.1,4.8c-0.2,0.1-0.4,0.2-0.7,0.2c-0.3,0-0.5-0.1-0.7-0.2
				l-6.2-3.5l8-4.8C193,321.8,193.3,321.8,193.6,321.8 M200.9,325.2L200.9,325.2 M193.6,320.8c-0.5,0-0.9,0.1-1.3,0.3l-8.3,5
				c-0.7,0.4-0.7,1,0,1.4l6.5,3.7c0.3,0.2,0.8,0.3,1.2,0.3c0.4,0,0.9-0.1,1.2-0.3l8.3-5c0.7-0.4,0.7-1,0-1.4l-6.5-3.7
				C194.5,320.9,194,320.8,193.6,320.8L193.6,320.8z"/>
		</g>
		<g>
			<path class="st1" d="M181.7,328.9c0.3,0,0.5,0.1,0.7,0.2l6.2,3.5l-8,4.8c-0.2,0.1-0.5,0.2-0.7,0.2c-0.3,0-0.5-0.1-0.7-0.1
				l-6.2-3.5l8.1-4.8C181.1,328.9,181.4,328.9,181.7,328.9 M181.7,327.9c-0.5,0-0.9,0.1-1.2,0.3l-8.3,5c-0.7,0.4-0.7,1,0,1.4
				l6.5,3.7c0.3,0.2,0.8,0.3,1.2,0.3c0.5,0,0.9-0.1,1.3-0.3l8.3-5c0.7-0.4,0.7-1,0-1.4l-6.5-3.7
				C182.6,327.9,182.1,327.9,181.7,327.9L181.7,327.9z"/>
		</g>
		<g>
			<path class="st1" d="M169.8,335.9c0.3,0,0.5,0.1,0.7,0.2l6.2,3.5l-8,4.8c-0.2,0.1-0.4,0.2-0.7,0.2c-0.3,0-0.5-0.1-0.7-0.2
				l-6.2-3.5l8-4.8C169.2,336,169.5,335.9,169.8,335.9 M177,339.4L177,339.4 M169.8,334.9c-0.4,0-0.9,0.1-1.2,0.3l-8.3,5
				c-0.7,0.4-0.7,1,0,1.4l6.5,3.7c0.3,0.2,0.8,0.3,1.2,0.3c0.4,0,0.9-0.1,1.2-0.3l8.3-5c0.7-0.4,0.7-1,0-1.4l-6.5-3.7
				C170.6,335,170.2,334.9,169.8,334.9L169.8,334.9z"/>
		</g>
		<g>
			<path class="st1" d="M157.9,343c0.3,0,0.5,0.1,0.7,0.2l6.2,3.5l-8.1,4.8c-0.2,0.1-0.4,0.2-0.7,0.2c-0.3,0-0.5-0.1-0.7-0.1
				l-6.2-3.5l8-4.8C157.3,343.1,157.6,343,157.9,343 M157.9,342c-0.5,0-0.9,0.1-1.3,0.3l-8.3,4.9c-0.7,0.4-0.7,1,0,1.4l6.5,3.7
				c0.3,0.2,0.8,0.3,1.2,0.3c0.5,0,0.9-0.1,1.2-0.3l8.3-4.9c0.7-0.4,0.7-1,0-1.4l-6.5-3.7C158.7,342.1,158.3,342,157.9,342
				L157.9,342z"/>
		</g>
		<g>
			<path class="st1" d="M145.8,350.2c0.3,0,0.5,0.1,0.7,0.2l6.2,3.5l-17.9,10.7c-0.2,0.1-0.4,0.2-0.7,0.2c-0.3,0-0.5-0.1-0.7-0.1
				l-6.2-3.5l17.9-10.7C145.2,350.3,145.5,350.2,145.8,350.2 M153.1,353.7L153.1,353.7 M145.8,349.2c-0.4,0-0.9,0.1-1.2,0.3
				l-18.2,10.8c-0.7,0.4-0.7,1,0,1.4l6.5,3.7c0.3,0.2,0.8,0.3,1.2,0.3c0.5,0,0.9-0.1,1.2-0.3l18.2-10.8c0.7-0.4,0.7-1,0-1.4
				l-6.5-3.7C146.6,349.3,146.2,349.2,145.8,349.2L145.8,349.2z"/>
		</g>
		<g>
			<path class="st1" d="M267,289.6c0.3,0,0.5,0.1,0.7,0.1l6.2,3.5l-8,4.8c-0.2,0.1-0.5,0.2-0.7,0.2c-0.3,0-0.5-0.1-0.7-0.2l-6.2-3.5
				l8.1-4.8C266.5,289.7,266.7,289.6,267,289.6 M267,288.6c-0.5,0-0.9,0.1-1.2,0.3l-8.3,5c-0.7,0.4-0.7,1,0,1.4l6.5,3.7
				c0.3,0.2,0.8,0.3,1.2,0.3c0.5,0,0.9-0.1,1.3-0.3l8.3-5c0.7-0.4,0.7-1,0-1.4l-6.5-3.7C267.9,288.7,267.5,288.6,267,288.6
				L267,288.6z"/>
		</g>
		<g>
			<path class="st1" d="M255.1,296.7c0.3,0,0.5,0.1,0.7,0.2l6.2,3.5l-8,4.8c-0.2,0.1-0.4,0.2-0.7,0.2c-0.3,0-0.5-0.1-0.7-0.2
				l-6.2-3.5l8-4.8C254.5,296.8,254.8,296.7,255.1,296.7 M255.1,295.7c-0.4,0-0.9,0.1-1.2,0.3l-8.3,5c-0.7,0.4-0.7,1,0,1.4l6.5,3.7
				c0.3,0.2,0.8,0.3,1.2,0.3c0.4,0,0.9-0.1,1.2-0.3l8.3-5c0.7-0.4,0.7-1,0-1.4l-6.5-3.7C256,295.8,255.5,295.7,255.1,295.7
				L255.1,295.7z"/>
		</g>
		<g>
			<path class="st1" d="M243.2,303.8c0.3,0,0.5,0.1,0.7,0.1l6.2,3.5l-8.1,4.8c-0.2,0.1-0.4,0.2-0.7,0.2c-0.3,0-0.5-0.1-0.7-0.2
				l-6.2-3.5l8-4.8C242.6,303.8,242.9,303.8,243.2,303.8 M250.5,307.2C250.5,307.2,250.5,307.2,250.5,307.2 M243.2,302.8
				c-0.5,0-0.9,0.1-1.3,0.3l-8.3,4.9c-0.7,0.4-0.7,1,0,1.4l6.5,3.7c0.3,0.2,0.8,0.3,1.2,0.3c0.5,0,0.9-0.1,1.2-0.3l8.3-4.9
				c0.7-0.4,0.7-1,0-1.4l-6.5-3.7C244.1,302.9,243.6,302.8,243.2,302.8L243.2,302.8z"/>
		</g>
		<g>
			<path class="st1" d="M231.3,310.9c0.3,0,0.5,0.1,0.7,0.1l6.2,3.5l-8,4.8c-0.2,0.1-0.5,0.2-0.7,0.2c-0.3,0-0.5-0.1-0.7-0.2
				l-6.2-3.5l8-4.8C230.7,310.9,231,310.9,231.3,310.9 M222.2,316L222.2,316L222.2,316 M231.3,309.9c-0.5,0-0.9,0.1-1.2,0.3l-8.3,5
				c-0.7,0.4-0.7,1,0,1.4l6.5,3.7c0.3,0.2,0.8,0.3,1.2,0.3c0.5,0,0.9-0.1,1.3-0.3l8.3-5c0.7-0.4,0.7-1,0-1.4l-6.5-3.7
				C232.1,310,231.7,309.9,231.3,309.9L231.3,309.9z"/>
		</g>
		<g>
			<path class="st1" d="M219.4,318c0.3,0,0.5,0.1,0.7,0.2l6.2,3.5l-8,4.8c-0.2,0.1-0.4,0.2-0.7,0.2c-0.3,0-0.5-0.1-0.7-0.2l-6.2-3.5
				l8-4.8C218.8,318,219.1,318,219.4,318 M219.4,317c-0.4,0-0.9,0.1-1.2,0.3l-8.3,5c-0.7,0.4-0.7,1,0,1.4l6.5,3.7
				c0.3,0.2,0.8,0.3,1.2,0.3c0.4,0,0.9-0.1,1.2-0.3l8.3-5c0.7-0.4,0.7-1,0-1.4l-6.5-3.7C220.2,317,219.8,317,219.4,317L219.4,317z"
				/>
		</g>
		<g>
			<path class="st1" d="M207.4,325.1c0.3,0,0.5,0.1,0.7,0.1l6.2,3.5l-8.1,4.8c-0.2,0.1-0.4,0.2-0.7,0.2c-0.3,0-0.5-0.1-0.7-0.2
				l-6.2-3.5l8-4.8C206.9,325.1,207.2,325.1,207.4,325.1 M214.7,328.5L214.7,328.5 M207.4,324.1c-0.5,0-0.9,0.1-1.3,0.3l-8.3,5
				c-0.7,0.4-0.7,1,0,1.4l6.5,3.7c0.3,0.2,0.8,0.3,1.2,0.3c0.5,0,0.9-0.1,1.2-0.3l8.3-5c0.7-0.4,0.7-1,0-1.4l-6.5-3.7
				C208.3,324.2,207.9,324.1,207.4,324.1L207.4,324.1z"/>
		</g>
		<g>
			<path class="st1" d="M195.5,332.1c0.3,0,0.5,0.1,0.7,0.2l6.2,3.5l-8,4.8c-0.2,0.1-0.4,0.2-0.7,0.2c-0.3,0-0.5-0.1-0.7-0.2
				l-6.2-3.5l8-4.8C195,332.2,195.2,332.1,195.5,332.1 M195.5,331.1c-0.4,0-0.9,0.1-1.2,0.3l-8.3,4.9c-0.7,0.4-0.7,1,0,1.4l6.5,3.7
				c0.3,0.2,0.8,0.3,1.2,0.3c0.4,0,0.9-0.1,1.2-0.3l8.3-4.9c0.7-0.4,0.7-1,0-1.4l-6.5-3.7C196.4,331.2,196,331.1,195.5,331.1
				L195.5,331.1z"/>
		</g>
		<g>
			<path class="st1" d="M183.6,339.2c0.3,0,0.5,0.1,0.7,0.1l6.2,3.5l-8,4.8c-0.2,0.1-0.4,0.2-0.7,0.2c-0.3,0-0.5-0.1-0.7-0.2
				l-6.2-3.5l8-4.8C183.1,339.3,183.3,339.2,183.6,339.2 M174.5,344.4L174.5,344.4L174.5,344.4 M174.5,344.4L174.5,344.4
				L174.5,344.4 M183.6,338.2c-0.5,0-0.9,0.1-1.3,0.3l-8.3,5c-0.7,0.4-0.7,1,0,1.4l6.5,3.7c0.3,0.2,0.8,0.3,1.2,0.3
				c0.4,0,0.9-0.1,1.2-0.3l8.3-5c0.7-0.4,0.7-1,0-1.4l-6.5-3.7C184.5,338.3,184.1,338.2,183.6,338.2L183.6,338.2z"/>
		</g>
		<g>
			<path class="st1" d="M171.7,346.3c0.3,0,0.5,0.1,0.7,0.1l6.2,3.5l-8,4.8c-0.2,0.1-0.5,0.2-0.7,0.2c-0.3,0-0.5-0.1-0.7-0.2
				l-6.2-3.5l8-4.8C171.1,346.4,171.4,346.3,171.7,346.3 M171.7,345.3c-0.5,0-0.9,0.1-1.2,0.3l-8.3,4.9c-0.7,0.4-0.7,1,0,1.4
				l6.5,3.7c0.3,0.2,0.8,0.3,1.2,0.3c0.5,0,0.9-0.1,1.3-0.3l8.3-5c0.7-0.4,0.7-1,0-1.4l-6.5-3.7
				C172.6,345.4,172.1,345.3,171.7,345.3L171.7,345.3z"/>
		</g>
		<g>
			<path class="st1" d="M159.8,353.4c0.3,0,0.5,0.1,0.7,0.2l6.2,3.5l-8,4.8c-0.2,0.1-0.4,0.2-0.7,0.2c-0.3,0-0.5-0.1-0.7-0.2
				l-6.2-3.5l8-4.8C159.2,353.5,159.5,353.4,159.8,353.4 M150.7,358.6L150.7,358.6L150.7,358.6 M150.7,358.6L150.7,358.6
				L150.7,358.6 M159.8,352.4c-0.4,0-0.9,0.1-1.2,0.3l-8.3,4.9c-0.7,0.4-0.7,1,0,1.4l6.5,3.7c0.3,0.2,0.8,0.3,1.2,0.3
				c0.4,0,0.9-0.1,1.2-0.3l8.3-4.9c0.7-0.4,0.7-1,0-1.4l-6.5-3.7C160.7,352.5,160.2,352.4,159.8,352.4L159.8,352.4z"/>
		</g>
		<g>
			<path class="st1" d="M147.9,360.5c0.3,0,0.5,0.1,0.7,0.1l6.2,3.5l-10.1,6c-0.2,0.1-0.4,0.2-0.7,0.2c-0.3,0-0.5-0.1-0.7-0.2
				l-6.2-3.5l10.1-6C147.3,360.6,147.6,360.5,147.9,360.5 M147.9,359.5c-0.5,0-0.9,0.1-1.3,0.3l-10.3,6.2c-0.7,0.4-0.7,1,0,1.4
				l6.5,3.7c0.3,0.2,0.8,0.3,1.2,0.3c0.5,0,0.9-0.1,1.2-0.3l10.3-6.2c0.7-0.4,0.7-1,0-1.4l-6.5-3.7
				C148.8,359.6,148.3,359.5,147.9,359.5L147.9,359.5z"/>
		</g>
		<g>
			<path class="st1" d="M312.6,274.1c0.3,0,0.5,0.1,0.7,0.2l6.2,3.5l-8.7,5.2c-0.2,0.1-0.5,0.2-0.7,0.2c-0.3,0-0.5-0.1-0.7-0.2
				l-6.2-3.5l8.7-5.2C312.1,274.1,312.3,274.1,312.6,274.1 M312.6,273.1c-0.4,0-0.9,0.1-1.2,0.3l-9,5.3c-0.7,0.4-0.7,1,0,1.4
				l6.5,3.7c0.3,0.2,0.8,0.3,1.2,0.3c0.5,0,0.9-0.1,1.3-0.3l9-5.3c0.7-0.4,0.7-1,0-1.4l-6.5-3.7C313.5,273.1,313,273.1,312.6,273.1
				L312.6,273.1z"/>
		</g>
		<g>
			<path class="st1" d="M299.7,281.7c0.3,0,0.5,0.1,0.7,0.2l6.2,3.5l-10.7,6.4c-0.2,0.1-0.4,0.2-0.7,0.2c-0.3,0-0.5-0.1-0.7-0.1
				l-6.2-3.5l10.7-6.4C299.1,281.8,299.4,281.7,299.7,281.7 M306.9,285.1L306.9,285.1 M299.7,280.7c-0.5,0-0.9,0.1-1.3,0.3l-11,6.5
				c-0.7,0.4-0.7,1,0,1.4l6.5,3.7c0.3,0.2,0.8,0.3,1.2,0.3c0.5,0,0.9-0.1,1.2-0.3l11-6.5c0.7-0.4,0.7-1,0-1.4l-6.5-3.7
				C300.5,280.8,300.1,280.7,299.7,280.7L299.7,280.7z"/>
		</g>
		<g>
			<path class="st1" d="M285,290.4c0.3,0,0.5,0.1,0.7,0.2l6.2,3.5l-8,4.8c-0.2,0.1-0.4,0.2-0.7,0.2c-0.3,0-0.5-0.1-0.7-0.2l-6.2-3.5
				l8-4.8C284.4,290.5,284.7,290.4,285,290.4 M292.2,293.9L292.2,293.9 M285,289.4c-0.4,0-0.9,0.1-1.2,0.3l-8.3,5
				c-0.7,0.4-0.7,1,0,1.4l6.5,3.7c0.3,0.2,0.8,0.3,1.2,0.3c0.4,0,0.9-0.1,1.2-0.3l8.3-5c0.7-0.4,0.7-1,0-1.4l-6.5-3.7
				C285.8,289.5,285.4,289.4,285,289.4L285,289.4z"/>
		</g>
		<g>
			<path class="st1" d="M273.1,297.5c0.3,0,0.5,0.1,0.7,0.2l6.2,3.5l-8,4.8c-0.2,0.1-0.4,0.2-0.7,0.2c-0.3,0-0.5-0.1-0.7-0.1
				l-6.2-3.5l8-4.8C272.5,297.6,272.8,297.5,273.1,297.5 M273.1,296.5c-0.5,0-0.9,0.1-1.3,0.3l-8.3,4.9c-0.7,0.4-0.7,1,0,1.4
				l6.5,3.7c0.3,0.2,0.8,0.3,1.2,0.3c0.5,0,0.9-0.1,1.2-0.3l8.3-4.9c0.7-0.4,0.7-1,0-1.4l-6.5-3.7
				C273.9,296.6,273.5,296.5,273.1,296.5L273.1,296.5z"/>
		</g>
		<g>
			<path class="st1" d="M261.1,304.6c0.3,0,0.5,0.1,0.7,0.2l6.2,3.5l-8,4.8c-0.2,0.1-0.5,0.2-0.7,0.2c-0.3,0-0.5-0.1-0.7-0.1
				l-6.2-3.5l8.1-4.8C260.6,304.7,260.9,304.6,261.1,304.6 M261.1,303.6c-0.5,0-0.9,0.1-1.2,0.3l-8.3,5c-0.7,0.4-0.7,1,0,1.4
				l6.5,3.7c0.3,0.2,0.8,0.3,1.2,0.3c0.5,0,0.9-0.1,1.3-0.3l8.3-5c0.7-0.4,0.7-1,0-1.4l-6.5-3.7C262,303.7,261.6,303.6,261.1,303.6
				L261.1,303.6z"/>
		</g>
		<g>
			<path class="st1" d="M249.2,311.7c0.3,0,0.5,0.1,0.7,0.2l6.2,3.5l-8,4.8c-0.2,0.1-0.4,0.2-0.7,0.2c-0.3,0-0.5-0.1-0.7-0.2
				l-6.2-3.5l8-4.8C248.7,311.7,249,311.7,249.2,311.7 M256.5,315.1L256.5,315.1 M249.2,310.7c-0.5,0-0.9,0.1-1.3,0.3l-8.3,5
				c-0.7,0.4-0.7,1,0,1.4l6.5,3.7c0.3,0.2,0.8,0.3,1.2,0.3c0.4,0,0.9-0.1,1.2-0.3l8.3-5c0.7-0.4,0.7-1,0-1.4l-6.5-3.7
				C250.1,310.8,249.7,310.7,249.2,310.7L249.2,310.7z"/>
		</g>
		<g>
			<path class="st1" d="M237.3,318.8c0.3,0,0.5,0.1,0.7,0.2l6.2,3.5l-8.1,4.8c-0.2,0.1-0.4,0.2-0.7,0.2c-0.3,0-0.5-0.1-0.7-0.1
				l-6.2-3.5l8.1-4.8C236.8,318.8,237,318.8,237.3,318.8 M237.3,317.8c-0.5,0-0.9,0.1-1.2,0.3l-8.3,5c-0.7,0.4-0.7,1,0,1.4l6.5,3.7
				c0.3,0.2,0.8,0.3,1.2,0.3c0.5,0,0.9-0.1,1.2-0.3l8.3-5c0.7-0.4,0.7-1,0-1.4l-6.5-3.7C238.2,317.9,237.8,317.8,237.3,317.8
				L237.3,317.8z"/>
		</g>
		<g>
			<path class="st1" d="M225.4,325.9c0.3,0,0.5,0.1,0.7,0.2l6.2,3.5l-8,4.8c-0.2,0.1-0.4,0.2-0.7,0.2c-0.3,0-0.5-0.1-0.7-0.2
				l-6.2-3.5l8-4.8C224.9,325.9,225.1,325.9,225.4,325.9 M225.4,324.9c-0.4,0-0.9,0.1-1.2,0.3l-8.3,4.9c-0.7,0.4-0.7,1,0,1.4
				l6.5,3.7c0.3,0.2,0.8,0.3,1.2,0.3c0.4,0,0.9-0.1,1.2-0.3l8.3-4.9c0.7-0.4,0.7-1,0-1.4l-6.5-3.7
				C226.3,325,225.9,324.9,225.4,324.9L225.4,324.9z"/>
		</g>
		<g>
			<path class="st1" d="M213.5,333c0.3,0,0.5,0.1,0.7,0.2l6.2,3.5l-8,4.8c-0.2,0.1-0.4,0.2-0.7,0.2c-0.3,0-0.5-0.1-0.7-0.2l-6.2-3.5
				l8-4.8C212.9,333,213.2,333,213.5,333 M220.7,336.4L220.7,336.4 M213.5,332c-0.5,0-0.9,0.1-1.3,0.3l-8.3,4.9
				c-0.7,0.4-0.7,1,0,1.4l6.5,3.7c0.3,0.2,0.8,0.3,1.2,0.3c0.4,0,0.9-0.1,1.2-0.3l8.3-4.9c0.7-0.4,0.7-1,0-1.4l-6.5-3.7
				C214.3,332.1,213.9,332,213.5,332L213.5,332z"/>
		</g>
		<g>
			<path class="st1" d="M201.6,340.1c0.3,0,0.5,0.1,0.7,0.2l6.2,3.5l-8,4.8c-0.2,0.1-0.5,0.2-0.7,0.2c-0.3,0-0.5-0.1-0.7-0.1
				l-6.2-3.5l8.1-4.8C201,340.1,201.3,340.1,201.6,340.1 M192.5,345.2L192.5,345.2C192.5,345.2,192.5,345.2,192.5,345.2
				 M201.6,339.1c-0.5,0-0.9,0.1-1.2,0.3l-8.3,5c-0.7,0.4-0.7,1,0,1.4l6.5,3.7c0.3,0.2,0.8,0.3,1.2,0.3c0.5,0,0.9-0.1,1.3-0.3l8.3-5
				c0.7-0.4,0.7-1,0-1.4l-6.5-3.7C202.4,339.1,202,339.1,201.6,339.1L201.6,339.1z"/>
		</g>
		<g>
			<path class="st1" d="M189.6,347.1c0.3,0,0.5,0.1,0.7,0.2l6.2,3.5l-8,4.8c-0.2,0.1-0.4,0.2-0.7,0.2c-0.3,0-0.5-0.1-0.7-0.2
				l-6.2-3.5l8-4.8C189.1,347.2,189.4,347.1,189.6,347.1 M196.9,350.6L196.9,350.6 M189.6,346.1c-0.4,0-0.9,0.1-1.2,0.3l-8.3,4.9
				c-0.7,0.4-0.7,1,0,1.4l6.5,3.7c0.3,0.2,0.8,0.3,1.2,0.3c0.4,0,0.9-0.1,1.2-0.3l8.3-5c0.7-0.4,0.7-1,0-1.4l-6.5-3.7
				C190.5,346.2,190.1,346.1,189.6,346.1L189.6,346.1z"/>
		</g>
		<g>
			<path class="st1" d="M177.8,354.2c0.3,0,0.5,0.1,0.7,0.2l6.2,3.5l-8.1,4.8c-0.2,0.1-0.4,0.2-0.7,0.2c-0.3,0-0.5-0.1-0.7-0.1
				l-6.2-3.5l8-4.8C177.2,354.3,177.5,354.2,177.8,354.2 M185,357.7L185,357.7 M177.8,353.2c-0.5,0-0.9,0.1-1.3,0.3l-8.3,5
				c-0.7,0.4-0.7,1,0,1.4l6.5,3.7c0.3,0.2,0.8,0.3,1.2,0.3c0.5,0,0.9-0.1,1.2-0.3l8.3-4.9c0.7-0.4,0.7-1,0-1.4l-6.5-3.7
				C178.6,353.3,178.2,353.2,177.8,353.2L177.8,353.2z"/>
		</g>
		<g>
			<path class="st1" d="M165.7,361.4c0.3,0,0.5,0.1,0.7,0.2l6.2,3.5l-17.9,10.7c-0.2,0.1-0.4,0.2-0.7,0.2c-0.3,0-0.5-0.1-0.7-0.1
				l-6.2-3.5l17.9-10.7C165.1,361.5,165.4,361.4,165.7,361.4 M172.9,364.9L172.9,364.9 M165.7,360.4c-0.4,0-0.9,0.1-1.2,0.3
				l-18.2,10.8c-0.7,0.4-0.7,1,0,1.4l6.5,3.7c0.3,0.2,0.8,0.3,1.2,0.3c0.5,0,0.9-0.1,1.2-0.3l18.2-10.8c0.7-0.4,0.7-1,0-1.4
				l-6.5-3.7C166.5,360.5,166.1,360.4,165.7,360.4L165.7,360.4z"/>
		</g>
		<g>
			<path class="st1" d="M332.5,273.8c0.3,0,0.5,0.1,0.7,0.2l16.2,9.1l-6,3.6c-0.2,0.1-0.4,0.2-0.7,0.2c-0.3,0-0.5-0.1-0.7-0.2
				l-16.2-9.1l6-3.6C331.9,273.9,332.2,273.8,332.5,273.8 M332.5,272.8c-0.4,0-0.9,0.1-1.2,0.3l-6.3,3.7c-0.7,0.4-0.7,1,0,1.4
				l16.4,9.3c0.3,0.2,0.8,0.3,1.2,0.3c0.4,0,0.9-0.1,1.2-0.3l6.3-3.7c0.7-0.4,0.7-1,0-1.4l-16.4-9.3
				C333.4,272.9,332.9,272.8,332.5,272.8L332.5,272.8z"/>
		</g>
		<g>
			<path class="st1" d="M322.8,279.5c0.3,0,0.5,0.1,0.7,0.2l6.2,3.5l-9.2,5.5c-0.2,0.1-0.5,0.2-0.7,0.2c-0.3,0-0.5-0.1-0.7-0.1
				l-6.2-3.5l9.2-5.5C322.3,279.6,322.6,279.5,322.8,279.5 M330.1,283L330.1,283 M312.6,285.4L312.6,285.4L312.6,285.4 M322.8,278.5
				c-0.4,0-0.9,0.1-1.2,0.3l-9.5,5.6c-0.7,0.4-0.7,1,0,1.4l6.5,3.7c0.3,0.2,0.8,0.3,1.2,0.3c0.5,0,0.9-0.1,1.3-0.3l9.5-5.6
				c0.7-0.4,0.7-1,0-1.4l-6.5-3.7C323.7,278.6,323.3,278.5,322.8,278.5L322.8,278.5z"/>
		</g>
		<g>
			<path class="st1" d="M309.7,287.4c0.3,0,0.5,0.1,0.7,0.2l6.2,3.5l-4.4,2.6c-0.2,0.1-0.5,0.2-0.7,0.2c-0.3,0-0.5-0.1-0.7-0.1
				l-6.2-3.5l4.4-2.6C309.1,287.4,309.4,287.4,309.7,287.4 M317,291.2L317,291.2L317,291.2 M309.7,286.4c-0.5,0-0.9,0.1-1.3,0.3
				l-4.7,2.8c-0.7,0.4-0.7,1,0,1.4l6.5,3.7c0.3,0.2,0.8,0.3,1.2,0.3c0.5,0,0.9-0.1,1.3-0.3l4.7-2.8c0.7-0.4,0.7-1,0-1.4l-6.5-3.7
				C310.6,286.4,310.1,286.4,309.7,286.4L309.7,286.4z"/>
		</g>
		<g>
			<path class="st1" d="M301,292.5c0.3,0,0.5,0.1,0.7,0.2l6.2,3.5l-4.6,2.8c-0.2,0.1-0.5,0.2-0.7,0.2c-0.3,0-0.5-0.1-0.7-0.1
				l-6.2-3.5l4.7-2.8C300.4,292.6,300.7,292.5,301,292.5 M301,291.5c-0.4,0-0.9,0.1-1.2,0.3l-4.9,2.9c-0.7,0.4-0.7,1,0,1.4l6.5,3.7
				c0.3,0.2,0.8,0.3,1.2,0.3c0.5,0,0.9-0.1,1.3-0.3l4.9-2.9c0.7-0.4,0.7-1,0-1.4l-6.5-3.7C301.9,291.6,301.4,291.5,301,291.5
				L301,291.5z"/>
		</g>
		<g>
			<path class="st1" d="M292.3,297.7c0.3,0,0.5,0.1,0.7,0.2l6.2,3.5l-13.4,7.9c-0.2,0.1-0.5,0.2-0.7,0.2c-0.3,0-0.5-0.1-0.7-0.1
				l-6.2-3.5l13.4-8C291.8,297.8,292,297.7,292.3,297.7 M277.9,306L277.9,306L277.9,306 M292.3,296.7c-0.5,0-0.9,0.1-1.2,0.3
				l-13.6,8.1c-0.7,0.4-0.7,1,0,1.4l6.5,3.7c0.3,0.2,0.8,0.3,1.2,0.3c0.5,0,0.9-0.1,1.3-0.3L300,302c0.7-0.4,0.7-1,0-1.4l-6.5-3.7
				C293.2,296.8,292.8,296.7,292.3,296.7L292.3,296.7z"/>
		</g>
		<g>
			<path class="st1" d="M275.1,308c0.3,0,0.5,0.1,0.7,0.2l6.2,3.5l-8,4.8c-0.2,0.1-0.4,0.2-0.7,0.2c-0.3,0-0.5-0.1-0.7-0.2l-6.2-3.5
				l8-4.8C274.5,308,274.8,308,275.1,308 M282.4,311.4L282.4,311.4 M275.1,307c-0.4,0-0.9,0.1-1.2,0.3l-8.3,5c-0.7,0.4-0.7,1,0,1.4
				l6.5,3.7c0.3,0.2,0.8,0.3,1.2,0.3c0.4,0,0.9-0.1,1.2-0.3l8.3-5c0.7-0.4,0.7-1,0-1.4l-6.5-3.7C276,307,275.5,307,275.1,307
				L275.1,307z"/>
		</g>
		<g>
			<path class="st1" d="M263.2,315c0.3,0,0.5,0.1,0.7,0.2l6.2,3.5l-8.1,4.8c-0.2,0.1-0.4,0.2-0.7,0.2c-0.3,0-0.5-0.1-0.7-0.1
				l-6.2-3.5l8-4.8C262.6,315.1,262.9,315,263.2,315 M263.2,314c-0.5,0-0.9,0.1-1.3,0.3l-8.3,4.9c-0.7,0.4-0.7,1,0,1.4l6.5,3.7
				c0.3,0.2,0.8,0.3,1.2,0.3c0.5,0,0.9-0.1,1.2-0.3l8.3-4.9c0.7-0.4,0.7-1,0-1.4l-6.5-3.7C264.1,314.1,263.6,314,263.2,314
				L263.2,314z"/>
		</g>
		<g>
			<path class="st1" d="M251.3,322.1c0.3,0,0.5,0.1,0.7,0.2l6.2,3.5l-8,4.8c-0.2,0.1-0.5,0.2-0.7,0.2c-0.3,0-0.5-0.1-0.7-0.1
				l-6.2-3.5l8.1-4.8C250.7,322.2,251,322.1,251.3,322.1 M242.1,327.3L242.1,327.3L242.1,327.3 M251.3,321.1c-0.5,0-0.9,0.1-1.2,0.3
				l-8.3,5c-0.7,0.4-0.7,1,0,1.4l6.5,3.7c0.3,0.2,0.8,0.3,1.2,0.3c0.5,0,0.9-0.1,1.3-0.3l8.3-5c0.7-0.4,0.7-1,0-1.4l-6.5-3.7
				C252.1,321.2,251.7,321.1,251.3,321.1L251.3,321.1z"/>
		</g>
		<g>
			<path class="st1" d="M239.4,329.2c0.3,0,0.5,0.1,0.7,0.2l6.2,3.5l-8,4.8c-0.2,0.1-0.4,0.2-0.7,0.2c-0.3,0-0.5-0.1-0.7-0.2
				l-6.2-3.5l8-4.8C238.8,329.3,239.1,329.2,239.4,329.2 M246.6,332.7L246.6,332.7 M239.4,328.2c-0.4,0-0.9,0.1-1.2,0.3l-8.3,4.9
				c-0.7,0.4-0.7,1,0,1.4l6.5,3.7c0.3,0.2,0.8,0.3,1.2,0.3c0.4,0,0.9-0.1,1.2-0.3l8.3-4.9c0.7-0.4,0.7-1,0-1.4l-6.5-3.7
				C240.2,328.3,239.8,328.2,239.4,328.2L239.4,328.2z"/>
		</g>
		<g>
			<path class="st1" d="M227.4,336.3c0.3,0,0.5,0.1,0.7,0.2l6.2,3.5l-8.1,4.8c-0.2,0.1-0.4,0.2-0.7,0.2c-0.3,0-0.5-0.1-0.7-0.1
				l-6.2-3.5l8-4.8C226.9,336.4,227.1,336.3,227.4,336.3 M227.4,335.3c-0.5,0-0.9,0.1-1.3,0.3l-8.3,4.9c-0.7,0.4-0.7,1,0,1.4
				l6.5,3.7c0.3,0.2,0.8,0.3,1.2,0.3c0.5,0,0.9-0.1,1.2-0.3l8.3-4.9c0.7-0.4,0.7-1,0-1.4l-6.5-3.7
				C228.3,335.4,227.9,335.3,227.4,335.3L227.4,335.3z"/>
		</g>
		<g>
			<path class="st1" d="M215.5,343.4c0.3,0,0.5,0.1,0.7,0.2l6.2,3.5l-8,4.8c-0.2,0.1-0.4,0.2-0.7,0.2c-0.3,0-0.5-0.1-0.7-0.2
				l-6.2-3.5l8-4.8C214.9,343.5,215.2,343.4,215.5,343.4 M215.5,342.4c-0.4,0-0.9,0.1-1.2,0.3l-8.3,5c-0.7,0.4-0.7,1,0,1.4l6.5,3.7
				c0.3,0.2,0.8,0.3,1.2,0.3c0.4,0,0.9-0.1,1.2-0.3l8.3-5c0.7-0.4,0.7-1,0-1.4l-6.5-3.7C216.4,342.5,215.9,342.4,215.5,342.4
				L215.5,342.4z"/>
		</g>
		<g>
			<path class="st1" d="M203.6,350.5c0.3,0,0.5,0.1,0.7,0.2l6.2,3.5l-8,4.8c-0.2,0.1-0.4,0.2-0.7,0.2c-0.3,0-0.5-0.1-0.7-0.2
				l-6.2-3.5l8-4.8C203,350.6,203.3,350.5,203.6,350.5 M210.9,353.9L210.9,353.9 M203.6,349.5c-0.5,0-0.9,0.1-1.3,0.3l-8.3,5
				c-0.7,0.4-0.7,1,0,1.4l6.5,3.7c0.3,0.2,0.8,0.3,1.2,0.3c0.4,0,0.9-0.1,1.2-0.3l8.3-5c0.7-0.4,0.7-1,0-1.4l-6.5-3.7
				C204.5,349.6,204,349.5,203.6,349.5L203.6,349.5z"/>
		</g>
		<g>
			<path class="st1" d="M191.7,357.6c0.3,0,0.5,0.1,0.7,0.2l6.2,3.5l-8,4.8c-0.2,0.1-0.5,0.2-0.7,0.2c-0.3,0-0.5-0.1-0.7-0.1
				l-6.2-3.5l8.1-4.8C191.1,357.6,191.4,357.6,191.7,357.6 M191.7,356.6c-0.5,0-0.9,0.1-1.2,0.3l-8.3,5c-0.7,0.4-0.7,1,0,1.4
				l6.5,3.7c0.3,0.2,0.8,0.3,1.2,0.3c0.5,0,0.9-0.1,1.3-0.3l8.3-5c0.7-0.4,0.7-1,0-1.4l-6.5-3.7
				C192.6,356.7,192.1,356.6,191.7,356.6L191.7,356.6z"/>
		</g>
		<g>
			<path class="st1" d="M179.8,364.7c0.3,0,0.5,0.1,0.7,0.2l6.2,3.5l-8,4.8c-0.2,0.1-0.4,0.2-0.7,0.2c-0.3,0-0.5-0.1-0.7-0.2
				l-6.2-3.5l8-4.8C179.2,364.7,179.5,364.7,179.8,364.7 M187,368.1C187,368.1,187,368.1,187,368.1 M179.8,363.7
				c-0.4,0-0.9,0.1-1.2,0.3l-8.3,5c-0.7,0.4-0.7,1,0,1.4l6.5,3.7c0.3,0.2,0.8,0.3,1.2,0.3c0.4,0,0.9-0.1,1.2-0.3l8.3-5
				c0.7-0.4,0.7-1,0-1.4L181,364C180.6,363.8,180.2,363.7,179.8,363.7L179.8,363.7z"/>
		</g>
		<g>
			<path class="st1" d="M167.9,371.8c0.3,0,0.5,0.1,0.7,0.2l6.2,3.5l-8,4.8c-0.2,0.1-0.4,0.2-0.7,0.2c-0.3,0-0.5-0.1-0.7-0.1
				l-6.2-3.5l8-4.8C167.3,371.8,167.6,371.8,167.9,371.8 M175.1,375.2L175.1,375.2 M167.9,370.8c-0.5,0-0.9,0.1-1.3,0.3l-8.3,5
				c-0.7,0.4-0.7,1,0,1.4l6.5,3.7c0.3,0.2,0.8,0.3,1.2,0.3c0.5,0,0.9-0.1,1.2-0.3l8.3-5c0.7-0.4,0.7-1,0-1.4l-6.5-3.7
				C168.7,370.9,168.3,370.8,167.9,370.8L167.9,370.8z"/>
		</g>
		<g>
			<path class="st1" d="M328.9,287.5c0.3,0,0.5,0.1,0.7,0.2l6.2,3.5l-8,4.8c-0.2,0.1-0.4,0.2-0.7,0.2c-0.3,0-0.5-0.1-0.7-0.2
				l-6.2-3.5l8-4.8C328.4,287.5,328.6,287.5,328.9,287.5 M328.9,286.5c-0.4,0-0.9,0.1-1.2,0.3l-8.3,5c-0.7,0.4-0.7,1,0,1.4l6.5,3.7
				c0.3,0.2,0.8,0.3,1.2,0.3c0.4,0,0.9-0.1,1.2-0.3l8.3-5c0.7-0.4,0.7-1,0-1.4l-6.5-3.7C329.8,286.6,329.4,286.5,328.9,286.5
				L328.9,286.5z"/>
		</g>
		<g>
			<path class="st1" d="M317,294.5c0.3,0,0.5,0.1,0.7,0.1l6.2,3.5l-8.1,4.8c-0.2,0.1-0.4,0.2-0.7,0.2c-0.3,0-0.5-0.1-0.7-0.2
				l-6.2-3.5l8-4.8C316.5,294.6,316.7,294.5,317,294.5 M324.3,298L324.3,298 M317,293.5c-0.5,0-0.9,0.1-1.3,0.3l-8.3,5
				c-0.7,0.4-0.7,1,0,1.4l6.5,3.7c0.3,0.2,0.8,0.3,1.2,0.3c0.5,0,0.9-0.1,1.2-0.3l8.3-4.9c0.7-0.4,0.7-1,0-1.4l-6.5-3.7
				C317.9,293.6,317.5,293.5,317,293.5L317,293.5z"/>
		</g>
		<g>
			<path class="st1" d="M305,301.7c0.3,0,0.5,0.1,0.7,0.2l6.2,3.5l-8,4.8c-0.2,0.1-0.4,0.2-0.7,0.2c-0.3,0-0.5-0.1-0.7-0.2l-6.2-3.5
				l8-4.8C304.4,301.8,304.7,301.7,305,301.7 M295.9,306.9L295.9,306.9L295.9,306.9 M295.9,306.9L295.9,306.9L295.9,306.9
				 M305,300.7c-0.4,0-0.9,0.1-1.2,0.3l-8.3,4.9c-0.7,0.4-0.7,1,0,1.4l6.5,3.7c0.3,0.2,0.8,0.3,1.2,0.3c0.4,0,0.9-0.1,1.2-0.3
				l8.3-4.9c0.7-0.4,0.7-1,0-1.4l-6.5-3.7C305.8,300.8,305.4,300.7,305,300.7L305,300.7z"/>
		</g>
		<g>
			<path class="st1" d="M293.1,308.8c0.3,0,0.5,0.1,0.7,0.1l6.2,3.5l-8,4.8c-0.2,0.1-0.4,0.2-0.7,0.2c-0.3,0-0.5-0.1-0.7-0.2
				l-6.2-3.5l8-4.8C292.5,308.9,292.8,308.8,293.1,308.8 M300.3,312.2L300.3,312.2 M293.1,307.8c-0.5,0-0.9,0.1-1.3,0.3l-8.3,5
				c-0.7,0.4-0.7,1,0,1.4l6.5,3.7c0.3,0.2,0.8,0.3,1.2,0.3c0.5,0,0.9-0.1,1.2-0.3l8.3-5c0.7-0.4,0.7-1,0-1.4l-6.5-3.7
				C293.9,307.9,293.5,307.8,293.1,307.8L293.1,307.8z"/>
		</g>
		<g>
			<path class="st1" d="M281.2,315.9c0.3,0,0.5,0.1,0.7,0.2l6.2,3.5l-55.7,33.2c-0.2,0.1-0.4,0.2-0.7,0.2c-0.3,0-0.5-0.1-0.7-0.2
				l-6.2-3.5l55.7-33.2C280.6,315.9,280.9,315.9,281.2,315.9 M281.2,314.9c-0.4,0-0.9,0.1-1.2,0.3l-56,33.3c-0.7,0.4-0.7,1,0,1.4
				l6.5,3.7c0.3,0.2,0.8,0.3,1.2,0.3c0.4,0,0.9-0.1,1.2-0.3l56-33.3c0.7-0.4,0.7-1,0-1.4l-6.5-3.7C282,315,281.6,314.9,281.2,314.9
				L281.2,314.9z"/>
		</g>
		<g>
			<path class="st1" d="M221.6,351.3c0.3,0,0.5,0.1,0.7,0.1l6.2,3.5l-8,4.8c-0.2,0.1-0.5,0.2-0.7,0.2c-0.3,0-0.5-0.1-0.7-0.2
				l-6.2-3.5l8.1-4.8C221,351.4,221.3,351.3,221.6,351.3 M221.6,350.3c-0.5,0-0.9,0.1-1.2,0.3l-8.3,5c-0.7,0.4-0.7,1,0,1.4l6.5,3.7
				c0.3,0.2,0.8,0.3,1.2,0.3c0.5,0,0.9-0.1,1.3-0.3l8.3-5c0.7-0.4,0.7-1,0-1.4l-6.5-3.7C222.5,350.4,222,350.3,221.6,350.3
				L221.6,350.3z"/>
		</g>
		<g>
			<path class="st1" d="M209.7,358.4c0.3,0,0.5,0.1,0.7,0.2l6.2,3.5l-8,4.8c-0.2,0.1-0.4,0.2-0.7,0.2c-0.3,0-0.5-0.1-0.7-0.2
				l-6.2-3.5l8-4.8C209.1,358.5,209.4,358.4,209.7,358.4 M200.6,363.6L200.6,363.6L200.6,363.6 M200.6,363.6L200.6,363.6
				C200.6,363.6,200.6,363.6,200.6,363.6 M209.7,357.4c-0.4,0-0.9,0.1-1.2,0.3l-8.3,5c-0.7,0.4-0.7,1,0,1.4l6.5,3.7
				c0.3,0.2,0.8,0.3,1.2,0.3c0.4,0,0.9-0.1,1.2-0.3l8.3-5c0.7-0.4,0.7-1,0-1.4l-6.5-3.7C210.5,357.5,210.1,357.4,209.7,357.4
				L209.7,357.4z"/>
		</g>
		<g>
			<path class="st1" d="M197.8,365.5c0.3,0,0.5,0.1,0.7,0.1l6.2,3.5l-8.1,4.8c-0.2,0.1-0.4,0.2-0.7,0.2c-0.3,0-0.5-0.1-0.7-0.2
				l-6.2-3.5l8-4.8C197.2,365.6,197.5,365.5,197.8,365.5 M197.8,364.5c-0.5,0-0.9,0.1-1.3,0.3l-8.3,4.9c-0.7,0.4-0.7,1,0,1.4
				l6.5,3.7c0.3,0.2,0.8,0.3,1.2,0.3c0.5,0,0.9-0.1,1.2-0.3l8.3-4.9c0.7-0.4,0.7-1,0-1.4l-6.5-3.7
				C198.6,364.6,198.2,364.5,197.8,364.5L197.8,364.5z"/>
		</g>
		<g>
			<path class="st1" d="M185.8,372.6c0.3,0,0.5,0.1,0.7,0.1l6.2,3.5l-8,4.8c-0.2,0.1-0.5,0.2-0.7,0.2c-0.3,0-0.5-0.1-0.7-0.2
				l-6.2-3.5l8-4.8C185.3,372.7,185.6,372.6,185.8,372.6 M185.8,371.6c-0.5,0-0.9,0.1-1.2,0.3l-8.3,5c-0.7,0.4-0.7,1,0,1.4l6.5,3.7
				c0.3,0.2,0.8,0.3,1.2,0.3c0.5,0,0.9-0.1,1.3-0.3l8.3-5c0.7-0.4,0.7-1,0-1.4l-6.5-3.7C186.7,371.7,186.3,371.6,185.8,371.6
				L185.8,371.6z"/>
		</g>
		<g>
			<path class="st1" d="M174,379.7c0.3,0,0.5,0.1,0.7,0.1l6.2,3.5l-6.2,3.7c-0.2,0.1-0.4,0.2-0.7,0.2c-0.3,0-0.5-0.1-0.7-0.2
				l-6.2-3.5l6.2-3.7C173.4,379.7,173.7,379.7,174,379.7 M181.2,383.1L181.2,383.1 M174,378.7c-0.5,0-0.9,0.1-1.3,0.3l-6.5,3.8
				c-0.7,0.4-0.7,1,0,1.4l6.5,3.7c0.3,0.2,0.8,0.3,1.2,0.3c0.5,0,0.9-0.1,1.2-0.3l6.5-3.8c0.7-0.4,0.7-1,0-1.4l-6.5-3.7
				C174.8,378.8,174.4,378.7,174,378.7L174,378.7z"/>
		</g>
	</g>
	<path class="st0" d="M78.8,343.7l-0.4-155.5c0-0.2,0-0.4,0-0.6c0-0.1,0-0.1,0-0.2c0-0.1,0-0.2,0-0.4c0-0.1,0-0.3,0.1-0.4
		c0-0.1,0-0.2,0.1-0.3c0-0.1,0-0.2,0.1-0.3c0-0.1,0.1-0.2,0.1-0.4c0-0.1,0-0.1,0.1-0.2c0-0.1,0.1-0.3,0.1-0.4c0-0.1,0-0.1,0.1-0.2
		c0.1-0.2,0.1-0.4,0.2-0.6c0,0,0,0,0-0.1c0.1-0.2,0.2-0.3,0.2-0.5c0-0.1,0.1-0.1,0.1-0.1c0.1-0.2,0.2-0.3,0.3-0.5c0,0,0-0.1,0.1-0.1
		c0.1-0.2,0.2-0.4,0.3-0.5c0,0,0.1-0.1,0.1-0.1c0.1-0.1,0.2-0.3,0.3-0.4c0-0.1,0.1-0.1,0.1-0.2c0.1-0.1,0.2-0.2,0.2-0.3
		c0.1-0.1,0.1-0.2,0.2-0.2c0.1-0.1,0.1-0.1,0.2-0.2c0.1-0.1,0.2-0.2,0.3-0.4c0.1-0.1,0.1-0.2,0.2-0.2c0.1-0.1,0.1-0.1,0.2-0.2
		c0.1-0.1,0.2-0.2,0.3-0.3c0.1,0,0.1-0.1,0.2-0.1c0.1-0.1,0.2-0.2,0.3-0.2c0.1,0,0.1-0.1,0.2-0.1c0.2-0.1,0.3-0.2,0.5-0.3
		L283.6,63.8c0.2-0.1,0.3-0.2,0.5-0.2c0,0,0.1,0,0.1-0.1c0.1-0.1,0.3-0.1,0.4-0.2c0,0,0,0,0,0c0.1,0,0.3-0.1,0.4-0.1
		c0.1,0,0.1,0,0.2,0c0.1,0,0.2,0,0.3,0c0.1,0,0.1,0,0.2,0c0.1,0,0.2,0,0.3,0c0,0,0,0,0.1,0c0.1,0,0.3,0,0.4,0c0,0,0.1,0,0.1,0
		c0.1,0,0.2,0,0.3,0.1c0,0,0.1,0,0.1,0c0.1,0,0.2,0.1,0.3,0.2l-8.3-4.8c0,0,0,0,0,0c-0.1,0-0.2-0.1-0.3-0.1c0,0,0,0-0.1,0
		c0,0-0.1,0-0.1,0c0,0-0.1,0-0.1,0c0,0-0.1,0-0.2,0c0,0-0.1,0-0.1,0c0,0,0,0,0,0c-0.1,0-0.2,0-0.3,0c0,0,0,0,0,0c0,0-0.1,0-0.1,0
		c-0.1,0-0.2,0-0.2,0c0,0-0.1,0-0.1,0c-0.1,0-0.1,0-0.2,0c0,0-0.1,0-0.1,0c0,0-0.1,0-0.1,0c-0.1,0-0.1,0-0.2,0c0,0-0.1,0-0.1,0
		c-0.1,0-0.2,0.1-0.3,0.1c0,0,0,0,0,0c-0.1,0-0.2,0.1-0.3,0.1c0,0-0.1,0-0.1,0.1c0,0-0.1,0-0.1,0.1c-0.2,0.1-0.3,0.2-0.5,0.2
		L75.2,174.5c-0.2,0.1-0.3,0.2-0.5,0.3c-0.1,0-0.1,0.1-0.2,0.1c-0.1,0.1-0.2,0.2-0.3,0.2c-0.1,0-0.1,0.1-0.2,0.1
		c-0.1,0.1-0.2,0.2-0.3,0.3c-0.1,0.1-0.1,0.1-0.2,0.2c0,0-0.1,0.1-0.1,0.1c0,0-0.1,0.1-0.1,0.1c-0.1,0.1-0.2,0.2-0.3,0.4
		c0,0-0.1,0.1-0.1,0.1c0,0-0.1,0.1-0.1,0.1c-0.1,0.1-0.1,0.2-0.2,0.2c0,0.1-0.1,0.1-0.1,0.2c0,0-0.1,0.1-0.1,0.1
		c0,0.1-0.1,0.1-0.1,0.2c0,0-0.1,0.1-0.1,0.1c-0.1,0.1-0.1,0.2-0.2,0.2c0,0.1-0.1,0.1-0.1,0.2c0,0,0,0,0,0.1
		c-0.1,0.1-0.2,0.3-0.3,0.4c0,0,0,0,0,0c0,0,0,0.1-0.1,0.1c-0.1,0.1-0.1,0.2-0.2,0.3c0,0-0.1,0.1-0.1,0.2c0,0.1-0.1,0.1-0.1,0.2
		c0,0,0,0.1-0.1,0.1c-0.1,0.1-0.1,0.2-0.2,0.4c0,0,0,0,0,0.1c0,0,0,0,0,0c-0.1,0.2-0.1,0.3-0.2,0.5c0,0,0,0.1,0,0.1
		c0,0.1,0,0.1-0.1,0.2c0,0.1-0.1,0.2-0.1,0.2c0,0.1,0,0.1-0.1,0.2c0,0.1,0,0.1-0.1,0.2c0,0,0,0.1,0,0.1c0,0.1,0,0.2-0.1,0.2
		c0,0.1,0,0.2-0.1,0.3c0,0,0,0.1,0,0.1c0,0.1,0,0.1,0,0.2c0,0.1-0.1,0.3-0.1,0.4c0,0,0,0.1,0,0.1c0,0.1,0,0.2,0,0.3
		c0,0.1,0,0.1,0,0.2c0,0.2,0,0.4,0,0.6l0.4,155.5c0,1.6,0.6,2.8,1.5,3.3l8.3,4.8C79.4,346.5,78.8,345.3,78.8,343.7z"/>
	<path class="st0" d="M183.6,125.5c-1.1,0.6-1.9,2.1-1.9,3.3c0,1.2,0.9,1.7,1.9,1.1c1.1-0.6,1.9-2.1,1.9-3.3
		C185.5,125.3,184.6,124.8,183.6,125.5z"/>
	<path class="st0" d="M358.4,284l-183,110c-0.4,0.3-1,0.3-1.4,0l-75.4-43.1c-0.9-0.5-0.9-1.9,0-2.4L283.6,240c0.4-0.3,1-0.3,1.4,0
		l73.4,41.6C359.3,282.1,359.3,283.4,358.4,284z"/>
</g>
</svg>
