<?xml version="1.0" encoding="utf-8"?>
<!-- Generator: Adobe Illustrator 22.1.0, SVG Export Plug-In . SVG Version: 6.00 Build 0)  -->
<svg version="1.1" id="Layer_1" xmlns="http://www.w3.org/2000/svg" xmlns:xlink="http://www.w3.org/1999/xlink" x="0px" y="0px"
	 viewBox="0 0 500 500" style="enable-background:new 0 0 500 500;" xml:space="preserve">
<style type="text/css">
	.st0{fill:none;stroke:#26ACF5;stroke-width:2;stroke-linecap:round;stroke-linejoin:round;stroke-miterlimit:10;}
</style>
<g>
	<line class="st0" x1="415.3" y1="220" x2="415.3" y2="247.5"/>
	<line class="st0" x1="415.3" y1="219.6" x2="415.3" y2="220"/>
	<path class="st0" d="M415.7,355.1h10.4c8.8,0,16-4.1,15.9-9.3l0.2-72.8c0,5.1-7.1,9.3-15.9,9.3h-32l0,11.7"/>
	<path class="st0" d="M176.4,355.1"/>
	<path class="st0" d="M160.6,287.1l-0.2,58.7c0,2.6,1.8,4.9,4.7,6.5c2.9,1.7,6.9,2.7,11.3,2.7h10.9"/>
	<g>
		<path class="st0" d="M346.1,315.3l-0.2,72.8c-4.7,1.4-9.5,2.5-14.4,3.4l0.3-72.8C336.7,317.8,341.5,316.7,346.1,315.3z"/>
	</g>
	<g>
		<path class="st0" d="M271.7,318.7l-0.2,72.8c-4.9-0.9-9.8-2.1-14.4-3.5l0.3-72.8C261.9,316.7,266.7,317.8,271.7,318.7z"/>
	</g>
	<path class="st0" d="M415.7,355.1l0.2-44.8c0,2.4-1.6,4.7-4.6,6.5l-19.8,11.5c-6.2,3.6-16.3,3.6-22.6,0l-22.6-13.1l-0.2,72.8
		l22.6,13.1c6.3,3.6,16.4,3.6,22.6,0l19.8-11.5c3.1-1.8,4.6-4.1,4.6-6.5L415.7,355.1"/>
	<path class="st0" d="M187.4,316.6l-0.2,66.4c0,2.4,1.6,4.8,4.7,6.6l19.9,11.5c6.3,3.6,16.4,3.6,22.6,0l22.5-13.1l0.3-72.8
		l-22.5,13.1c-6.2,3.6-16.3,3.6-22.6,0l-19.9-11.5c-0.1-0.1-0.2-0.1-0.4-0.2"/>
	<g>
		<polygon class="st0" points="271.8,337.2 271.5,410 271.4,391.5 271.7,318.7 		"/>
	</g>
	<path class="st0" d="M315.9,346.5l-28.1,0c-4.4,0-8.4-1-11.3-2.7c-2.9-1.7-4.7-4-4.7-6.5l-0.3,72.8c0,2.6,1.8,4.9,4.7,6.5
		c2.9,1.7,6.9,2.7,11.3,2.7l28.1,0c8.8,0,16-4.1,15.9-9.3l0.3-72.8C331.9,342.4,324.7,346.5,315.9,346.5z"/>
	<path class="st0" d="M339.5,212.9c2,0.5,4.1,1.1,6.1,1.6l22.5-13.1c6.2-3.6,16.3-3.6,22.6,0l19.9,11.5c6.3,3.6,6.3,9.5,0.1,13.1
		l-22.5,13.1c2.4,2.7,4.4,5.5,6,8.4l31.9,0c4.4,0,8.4,1,11.3,2.7c2.9,1.7,4.7,4,4.7,6.5l0.1,16.3c0,5.1-7.1,9.3-15.9,9.3h-32
		c-1.6,2.9-3.5,5.6-5.9,8.3l5.6,3.3"/>
	<path class="st0" d="M339.5,212.9"/>
	<path class="st0" d="M394.1,293.9l17,9.8c6.3,3.6,6.3,9.5,0.1,13.1l-19.8,11.5c-6.2,3.6-16.3,3.6-22.6,0l-22.6-13.1
		c-4.7,1.4-9.5,2.5-14.4,3.4l0.1,18.5c0,5.1-7.1,9.2-15.9,9.3l-28.1,0c-4.4,0-8.4-1-11.3-2.7c-2.9-1.7-4.7-4-4.7-6.5l-0.1-18.5
		c-4.9-0.9-9.8-2.1-14.4-3.5l-22.5,13.1c-6.2,3.6-16.3,3.6-22.6,0l-19.9-11.5c-0.1-0.1-0.2-0.1-0.4-0.2"/>
	<path class="st0" d="M299.9,291.8c12.4,0.2,25-2.4,34.4-7.9c17-9.9,17.9-25.5,2.9-36.1"/>
	<g>
		<line class="st0" x1="312.7" y1="117.3" x2="312.6" y2="144.9"/>
		<line class="st0" x1="312.7" y1="117" x2="312.7" y2="117.3"/>
		<line class="st0" x1="84.2" y1="144.9" x2="84.3" y2="116.9"/>
		<path class="st0" d="M313.1,252.5h10.4c8.8,0,16-4.1,15.9-9.3l0.2-72.8c0,5.1-7.1,9.3-15.9,9.3h-32l0,11.7"/>
		<g>
			<path class="st0" d="M73.8,252.5"/>
			<path class="st0" d="M74,179.7c-4.4,0-8.4-1-11.3-2.7c-2.9-1.7-4.7-4-4.7-6.5l-0.3,72.8c0,2.6,1.8,4.9,4.7,6.5
				c2.9,1.7,6.9,2.7,11.3,2.7h10.9"/>
		</g>
		<g>
			<path class="st0" d="M243.5,212.7l-0.2,72.8c-4.7,1.4-9.5,2.5-14.4,3.4l0.3-72.8C234,215.2,238.8,214,243.5,212.7z"/>
		</g>
		<g>
			<path class="st0" d="M169,216.1l-0.2,72.8c-4.9-0.9-9.8-2.1-14.4-3.5l0.3-72.8C159.3,214,164.1,215.2,169,216.1z"/>
		</g>
		<path class="st0" d="M313.1,252.5l0.2-44.8c0,2.4-1.6,4.7-4.6,6.5l-19.8,11.5c-6.2,3.6-16.3,3.6-22.6,0l-22.6-13.1l-0.2,72.8
			l22.6,13.1c6.3,3.6,16.4,3.6,22.6,0l19.8-11.5c3.1-1.8,4.6-4.1,4.6-6.5L313.1,252.5"/>
		<path class="st0" d="M132.1,225.7c-6.2,3.6-16.3,3.6-22.6,0l-19.9-11.5c-3.1-1.8-4.7-4.2-4.7-6.6l-0.3,72.8c0,2.4,1.6,4.8,4.7,6.6
			l19.9,11.5c6.3,3.6,16.4,3.6,22.6,0l22.5-13.1l0.3-72.8L132.1,225.7z"/>
		<g>
			<polygon class="st0" points="169.1,234.6 168.9,307.4 168.8,288.9 169,216.1 			"/>
		</g>
		<path class="st0" d="M213.3,243.9l-28.1,0c-4.4,0-8.4-1-11.3-2.7c-2.9-1.7-4.7-4-4.7-6.5l-0.3,72.8c0,2.6,1.8,4.9,4.7,6.5
			c2.9,1.7,6.9,2.7,11.3,2.7l28.1,0c8.8,0,16-4.1,15.9-9.3l0.3-72.8C229.2,239.7,222.1,243.9,213.3,243.9z"/>
		<g>
			<path class="st0" d="M291.5,191.3l17,9.8c6.3,3.6,6.3,9.5,0.1,13.1l-19.8,11.5c-6.2,3.6-16.3,3.6-22.6,0l-22.6-13.1
				c-4.7,1.4-9.5,2.5-14.4,3.4l0.1,18.5c0,5.1-7.1,9.2-15.9,9.3l-28.1,0c-4.4,0-8.4-1-11.3-2.7c-2.9-1.7-4.7-4-4.7-6.5l-0.1-18.5
				c-4.9-0.9-9.8-2.1-14.4-3.5l-22.5,13.1c-6.2,3.6-16.3,3.6-22.6,0l-19.9-11.5c-6.3-3.6-6.3-9.5-0.1-13.1L112,188
				c-2.4-2.7-4.4-5.5-6-8.3H74c-4.4,0-8.4-1-11.3-2.7c-2.9-1.7-4.7-4-4.7-6.5l-0.1-16.3c0-5.1,7.1-9.3,15.9-9.3h32
				c1.6-2.9,3.5-5.6,5.9-8.3L89,123.5c-6.3-3.6-6.3-9.5-0.1-13.1l19.8-11.5c6.2-3.6,16.3-3.6,22.6,0l22.6,13.1
				c4.7-1.4,9.5-2.5,14.4-3.4L168.3,90c0-5.1,7.1-9.3,15.9-9.3l28.1,0c4.4,0,8.4,1,11.3,2.7c2.9,1.7,4.7,4,4.7,6.5l0.1,18.5
				c4.9,0.9,9.8,2.1,14.4,3.4l22.5-13.1c6.2-3.6,16.3-3.6,22.6,0l19.9,11.5c6.3,3.6,6.3,9.5,0.1,13.1l-22.5,13.1
				c2.4,2.7,4.4,5.5,6,8.4l31.9,0c4.4,0,8.4,1,11.3,2.7c2.9,1.7,4.7,4,4.7,6.5l0.1,16.3c0,5.1-7.1,9.3-15.9,9.3h-32
				c-1.6,2.9-3.5,5.6-5.9,8.3L291.5,191.3 M166,181.3c18.2,10.5,47.7,10.5,65.7,0c18.1-10.5,18-27.6-0.2-38.1
				c-18.2-10.5-47.6-10.5-65.7,0C147.7,153.8,147.8,170.8,166,181.3"/>
		</g>
		<line class="st0" x1="106" y1="179.8" x2="106" y2="191.6"/>
	</g>
</g>
</svg>
