<?xml version="1.0" encoding="utf-8"?>
<!-- Generator: Adobe Illustrator 22.1.0, SVG Export Plug-In . SVG Version: 6.00 Build 0)  -->
<svg version="1.1" id="Layer_1" xmlns="http://www.w3.org/2000/svg" xmlns:xlink="http://www.w3.org/1999/xlink" x="0px" y="0px"
	 viewBox="0 0 500 500" style="enable-background:new 0 0 500 500;" xml:space="preserve">
<style type="text/css">
	.st0{fill:none;stroke:#26ACF5;stroke-width:2;stroke-linecap:round;stroke-linejoin:round;stroke-miterlimit:10;}
</style>
<g>
	<path class="st0" d="M213.6,411.4c3.6,27.6,69.1,27.6,72.7,0"/>
	<path class="st0" d="M310.2,325v58c0,19.7-27,35.6-60.2,35.6s-60.2-15.9-60.2-35.6v-58"/>
	<path class="st0" d="M250,399.3c33.3,0,60.2-15.9,60.2-35.6v19.4c0,19.7-27,35.6-60.2,35.6s-60.2-15.9-60.2-35.6v-19.4
		C189.8,383.4,216.7,399.3,250,399.3z"/>
	<path class="st0" d="M250,360.6c33.3,0,60.2-15.9,60.2-35.6v19.4c0,19.7-27,35.6-60.2,35.6s-60.2-15.9-60.2-35.6V325
		C189.8,344.7,216.7,360.6,250,360.6z"/>
	<path class="st0" d="M143.3,229.3c0-58.9,47.8-106.7,106.7-106.7c58.9,0,106.7,47.8,106.7,106.7c0,36.6-18.4,68.9-46.5,88.1v7.6
		c0,19.7-27,35.6-60.2,35.6s-60.2-15.9-60.2-35.6v-7.6C161.7,298.2,143.3,265.9,143.3,229.3z"/>
	<path class="st0" d="M284.4,295.8l-4,16.5c-1.9,7.9-12.3,3.7-10.8-2.6l18.6-76.4l-8.5,4.7c-3.3,1.1-5.3,0-5.9-3.5V228
		c-4.6,3.4-4,15.4-3.1,20.1c0,5.8-3.1,11-8.2,13.8l-0.6,0.3c-6.3,2-10.1-0.2-11.3-6.7v-14.3c-2.4,1.4-3.8,3.9-3.8,6.7v13.8
		c0,5.7-3.1,10.9-8,13.7c-4.8,2.2-12,1.3-12-6.3v-1l-9.1,4.9l19.7,59.9c2.1,6.3-8,11.1-10.5,3.5l-20.7-62.8c-1-2.9,0.6-6,3.5-7
		c1.1-0.4-2.9,1,0,0c6.5-2.1,13.2-4.6,19.2-8.7c3.3-1.1,5.2,0.1,5.9,3.5v7.1l0.1-0.1c2.4-1.4,3.9-3.9,3.9-6.7v-13.8
		c0-5.6,3-10.8,7.8-13.6l0.5-0.3c6.4-2.2,10.2,0,11.5,6.6v14.3l0.1-0.1c2.5-1.4,4-3.9,4-6.8v-13.8c0-10.6,19.1-22,19.1-6.9v0.4l9-5
		l0.2-1c1.7-7,12.5-4.3,10.8,2.6L284.4,295.8"/>
	<g>
		<path class="st0" d="M246,105.2L246,105.2c-4.4,0-7.9-3.5-7.9-7.9V75.8c0-4.4,3.5-7.9,7.9-7.9l0,0c4.4,0,7.9,3.5,7.9,7.9v21.6
			C253.9,101.7,250.4,105.2,246,105.2z"/>
		<path class="st0" d="M159.3,144.4L159.3,144.4c-3.1,3.1-8.1,3.1-11.2,0l-15.3-15.3c-3.1-3.1-3.1-8.1,0-11.2l0,0
			c3.1-3.1,8.1-3.1,11.2,0l15.3,15.3C162.4,136.4,162.4,141.4,159.3,144.4z"/>
		<path class="st0" d="M125.8,233.5L125.8,233.5c0,4.4-3.5,7.9-7.9,7.9H96.3c-4.4,0-7.9-3.5-7.9-7.9l0,0c0-4.4,3.5-7.9,7.9-7.9h21.6
			C122.2,225.5,125.8,229.1,125.8,233.5z"/>
		<path class="st0" d="M165,320.1L165,320.1c3.1,3.1,3.1,8.1,0,11.2l-15.3,15.3c-3.1,3.1-8.1,3.1-11.2,0l0,0
			c-3.1-3.1-3.1-8.1,0-11.2l15.3-15.3C156.9,317,161.9,317,165,320.1z"/>
		<path class="st0" d="M340.7,314.5L340.7,314.5c3.1-3.1,8.1-3.1,11.2,0l15.3,15.3c3.1,3.1,3.1,8.1,0,11.2l0,0
			c-3.1,3.1-8.1,3.1-11.2,0l-15.3-15.3C337.6,322.6,337.6,317.6,340.7,314.5z"/>
		<path class="st0" d="M374.2,225.5L374.2,225.5c0-4.4,3.5-7.9,7.9-7.9h21.6c4.4,0,7.9,3.5,7.9,7.9l0,0c0,4.4-3.5,7.9-7.9,7.9h-21.6
			C377.8,233.4,374.2,229.8,374.2,225.5z"/>
		<path class="st0" d="M335,138.8L335,138.8c-3.1-3.1-3.1-8.1,0-11.2l15.3-15.3c3.1-3.1,8.1-3.1,11.2,0l0,0c3.1,3.1,3.1,8.1,0,11.2
			l-15.3,15.3C343.1,141.9,338.1,141.9,335,138.8z"/>
	</g>
</g>
</svg>
