<?xml version="1.0" encoding="utf-8"?>
<!-- Generator: Adobe Illustrator 22.1.0, SVG Export Plug-In . SVG Version: 6.00 Build 0)  -->
<svg version="1.1" id="Layer_1" xmlns="http://www.w3.org/2000/svg" xmlns:xlink="http://www.w3.org/1999/xlink" x="0px" y="0px"
	 viewBox="0 0 500 500" style="enable-background:new 0 0 500 500;" xml:space="preserve">
<style type="text/css">
	.st0{fill:none;stroke:#26ACF5;stroke-width:2;stroke-linecap:round;stroke-linejoin:round;stroke-miterlimit:10;}
</style>
<g>
	<g>
		<line class="st0" x1="121.1" y1="234.4" x2="157.3" y2="213.2"/>
		<line class="st0" x1="74.7" y1="267" x2="121" y2="240.2"/>
		<g>
			<g>
				<polygon class="st0" points="241.4,239.4 392.5,151.3 241.4,64.2 89.2,151.3 				"/>
				<polyline class="st0" points="89.1,151.1 89.1,158.3 241.4,246.7 241.4,239.2 				"/>
				<polyline class="st0" points="241.2,246.6 392.4,158.5 392.4,151.3 				"/>
				<path class="st0" d="M157.5,198v29.1c0,0,1.4,51.9,83.4,51.9s86.4-52.6,86.4-52.6v-30.2"/>
				<line class="st0" x1="241.2" y1="151" x2="317" y2="195.3"/>
				<line class="st0" x1="317" y1="195.3" x2="317" y2="258.5"/>
				<path class="st0" d="M327.6,294.6l-5.5-30.9c0-2.8-2.3-5.1-5.1-5.1c-2.8,0-5.1,2.3-5.1,5.1l-5.5,30.9c-0.4,1.2-0.7,2.5-0.7,3.9
					c0,6.2,5,11.3,11.3,11.3c6.2,0,11.3-5,11.3-11.3C328.2,297.1,328,295.8,327.6,294.6z"/>
				<path class="st0" d="M121,234.3v44l136.2,78.5l106.2-61.1c0,0,13.3-7.5,13.3-24.9c0-18.4-17.1-17.1-25.9-11.9l-93.5,53.9
					L121,234.3z"/>
				<polyline class="st0" points="121,243 257.2,321.7 306.6,293.2 				"/>
				<path class="st0" d="M325.6,283.3l32.4-18.7c0,0,12.6-6,12.6,7.5c0,13.3-17.1,20.1-20.8,22.5c-3.8,2.4-92.5,53.6-92.5,53.6
					L121,269.5"/>
				<line class="st0" x1="257.2" y1="312.8" x2="257.2" y2="356.8"/>
				<path class="st0" d="M74.3,267.4v60.5l187.2,107.9l145.9-84c0,0,18.3-10.3,18.3-34.3c0-25.3-23.5-23.5-35.7-16.4l-128.6,74.1
					L74.3,267.4z"/>
				<path class="st0" d="M74.3,318.8l187.2,108.3c0,0,122-70.5,127.2-73.7c11.7-7.2,29.7-14.4,29.7-32.7c0-21.7-18.7-14.2-18.7-14.2
					l-137.9,78.7"/>
				<line class="st0" x1="261.5" y1="375.3" x2="261.5" y2="435.8"/>
				<line class="st0" x1="326.5" y1="230.5" x2="371.3" y2="257.8"/>
			</g>
			<line class="st0" x1="416.7" y1="298.8" x2="376.4" y2="274.9"/>
		</g>
	</g>
	<line class="st0" x1="74.2" y1="276.5" x2="261.7" y2="385.2"/>
</g>
</svg>
